<?xml version="1.0" encoding="utf-8"?>
<svg version="1.1" xmlns="http://www.w3.org/2000/svg" xmlns:xlink="http://www.w3.org/1999/xlink" height="333.7046301094788" width="333.7046301094815">
  <defs>
    <path id="path-1" opacity="1" fill-rule="evenodd" d="M306.54561280489287,173.58446202158524 L331.35231505474076,167.19304230777527 L329.64074151241255,142.68740379531368 L304.1760837190202,139.8190593383843 C302.58454260693316,131.65051316756382 300.28614385009246,123.67348689060657 297.31645261301395,115.98151347893425 L317.40187927337473,100.03191487603985 L305.8787659702195,78.34117340826666 L281.4277153655306,86.10441003626026 C276.7019941304789,79.3344044857438 271.3805563897857,72.97416242907433 265.5211955357894,67.10830893563345 L277.3910691929747,44.35752712508203 L258.05251098744804,29.24081736294194 L238.89622425006542,46.27272606371501 C231.8987781315599,42.05928839872253 224.45676745660555,38.4204104153199 216.62798561754065,35.43626323186855 L218.23286366632107,9.803775111327532 L194.42198602291862,3.8755663036055927 L183.8324582883061,27.26326311002797 C175.51465543714738,26.229946473370195 167.2457546871981,25.949347559105295 159.09244072192544,26.39028871009296 L150.15669313730277,2.3523150547393925 L126.01239207656363,6.632561985033022 L125.82122931729057,32.30958961577477 C117.9035345669359,34.736992921716535 110.23479596819253,37.85921258679022 102.89948078678593,41.62725514977506 L84.93907270625078,23.276976947059342 L64.62247247653661,37.02632374603591 L74.88746808494143,60.56990883816095 C68.65911864909252,65.96809747449383 62.90200764307941,71.93639184139653 57.687265395933935,78.40798267356782 L33.858605170273506,68.9656065110054 L20.881765767530464,89.80564333394392 L39.80687893555967,107.12705885102193 C36.37039491420972,114.51170964230896 33.538518689630365,122.29276207438284 31.386826236417697,130.4301305880628 L5.757679557139268,131.52134858798158 L2.3523150547407568,155.8532830106602 L26.661105001366,163.9639278182197 C26.49661611547995,172.33290178494372 27.09677826668591,180.60834278024606 28.39935241708118,188.70562573474538 L5.468712595447437,200.12110219920177 L12.234985144599609,223.74040445866808 L37.757436330330236,221.23283003436498 C40.9983119468427,228.8624481317562 44.89714310689943,236.175835706722 49.39169077259767,243.10172954294117 L33.05394332310103,262.91290368024204 L48.81820249477859,281.7174848870055 L71.11756064625487,269.04599423488753 C77.1191821583149,274.6624264712041 83.63205291029107,279.7844701442923 90.62060773766761,284.3096843806901 L83.74319404940331,309.02911254211534 L105.78915040370366,319.7898582066205 L121.01993210764265,299.11016362040476 C124.9009806854414,300.44189497540765 128.85760523783654,301.626645946748 132.9075883470859,302.64214677932546 C136.9442345196418,303.63983180782265 140.98977198332668,304.4504508934766 145.0264181558826,305.0918198403677 L148.77854301231127,330.5016104099048 L173.282941363774,331.3523150547394 L178.7955418637402,306.2899326647683 C187.09556213264094,305.56839259951585 195.24887609791352,304.1030427139106 203.1754621393972,301.94733042019357 L216.90361564253894,323.62025608388643 L239.64309270489957,314.40948537436793 L234.4861438500925,289.22684630685467 C241.7103178923869,285.2138364377656 248.57884028952228,280.58618132790605 254.9939068390797,275.36615073237624 L276.3463424853198,289.5698005354006 L293.3820562884412,271.8876149856964 L278.4846980018389,251.02085445663744 C283.4149189328571,244.46909250610472 287.81610804170117,237.43184989438365 291.5860154803877,229.96702798473524 L316.83728228668457,234.2383670129887 L325.21287853018157,211.14908492491148 L303.0913462012849,198.13018609322748 C304.98519121175724,189.92600831424636 306.1188308307019,181.71737658424513 306.54561280489287,173.58446202158524Z"/>
  </defs>
  <g opacity="1">
    <use xlink:href="#path-1" fill-opacity="0" stroke="rgb(255,255,255)" stroke-opacity="1" stroke-width="1" stroke-linecap="butt" stroke-linejoin="miter"/>
  </g>
</svg>