<svg xmlns="http://www.w3.org/2000/svg" viewBox="0 0 83.94 85.41"><defs><style>.cls-1{fill:#807f81;}.cls-2{fill:#bdbabd;}.cls-3{fill:#d2d2d2;}.cls-4{fill:#a29ea2;}.cls-5{fill:#e04b26;}.cls-6{fill:#f37245;}.cls-7{fill:#be3d26;}.cls-8{fill:#cb6040;}.cls-9{fill:#f68a5e;}.cls-10{fill:#5b5c5f;}.cls-11{fill:#167d60;}.cls-12{fill:#7fbb9e;}.cls-13{fill:#6b9780;}.cls-14{fill:#4fa781;}.cls-15{fill:#c1bfbf;}.cls-16{fill:#99caad;}.cls-17{fill:#f1f1f8;}.cls-18{fill:#979497;}.cls-19{fill:#4e4f52;}.cls-20{fill:#848184;}.cls-21{fill:#246a53;}.cls-22{fill:#6d6b6c;}.cls-23{fill:#be6141;}</style></defs><title>Asset 1</title><g id="Layer_2" data-name="Layer 2"><g id="Layer_1-2" data-name="Layer 1"><polygon class="cls-1" points="19.11 25.65 19.11 25.66 19.12 25.66 19.11 25.65"/><path class="cls-2" d="M28,30.19l1.44.73h0V29.36a2.51,2.51,0,0,1-.64-.18,1.17,1.17,0,0,1-.38-.28l-.05-.09a.44.44,0,0,1-.07-.21h0v-.78l0-1.31h0a.73.73,0,0,1,.47-.59,3,3,0,0,1,1.72-.22l1.93-.95v-.82h0c0-.21.16-.43.48-.59a2.73,2.73,0,0,1,1.27-.27l.16-.09a2.93,2.93,0,0,1,2-.16l.68-.33-5.59-2.86-.52.26a.71.71,0,0,1,.44.53h0v.31l2.16,1.07-2.63,1.31h0a2.91,2.91,0,0,1-2.35,0c-.33-.15-.49-.36-.5-.58h0l0-1.26-3.06,1.51a.6.6,0,0,1,.15.09,1.75,1.75,0,0,1,.24,0A2.74,2.74,0,0,1,26,23a2.39,2.39,0,0,1,1.39.88A.85.85,0,0,1,27,25.14l-2.13.92h0a3,3,0,0,1-2.35,0c-.33-.16-.49-.37-.5-.58h0l0-1.29-2.9,1.43h0l7.78,4Z"/><path class="cls-1" d="M29.41,28.4V27.28a2.34,2.34,0,0,1-.68-.19c-.33-.15-.49-.37-.49-.58h0l0,1.31v.78h0a.44.44,0,0,0,.07.21l.05.09a1.17,1.17,0,0,0,.38.28,2.51,2.51,0,0,0,.64.18v-1Z"/><path class="cls-3" d="M28.73,27.09a2.34,2.34,0,0,0,.68.19V26.2h0l1-.5a3,3,0,0,0-1.72.22.73.73,0,0,0-.47.59C28.24,26.72,28.4,26.94,28.73,27.09Z"/><path class="cls-3" d="M35.27,23.31l1-.49a2.93,2.93,0,0,0-2,.16l-.16.09a2.8,2.8,0,0,1,1.12.22Z"/><path class="cls-4" d="M25.35,23.37h0l0,2.09h0c0,.21-.16.43-.48.6L27,25.14a.85.85,0,0,0,.37-1.28A2.39,2.39,0,0,0,26,23a2.74,2.74,0,0,0-.74-.1,1.75,1.75,0,0,0-.24,0A.6.6,0,0,1,25.35,23.37Z"/><path class="cls-1" d="M22.06,25.52c0,.21.17.42.5.58a3,3,0,0,0,2.35,0h0c.32-.17.48-.39.48-.6h0l0-2.09h0c0,.21-.15.43-.48.6a2.91,2.91,0,0,1-2.35,0h0c-.31-.16-.46-.37-.46-.58h0l0,.8,0,1.29Z"/><path class="cls-3" d="M22.49,24h0a2.91,2.91,0,0,0,2.35,0c.33-.17.49-.39.48-.6a.85.85,0,0,0-.46-.55s0,0,0,0a2.91,2.91,0,0,0-2.35,0c-.32.16-.47.38-.47.58S22.18,23.84,22.49,24Z"/><path class="cls-4" d="M31.32,22.52c0,.21-.16.42-.48.59l2.63-1.31-2.16-1.07,0,1.78Z"/><path class="cls-1" d="M28,22.57c0,.22.17.43.5.58a2.91,2.91,0,0,0,2.35,0h0c.32-.17.48-.38.48-.59h0l0-1.78v-.31h0a.5.5,0,0,1-.08.26.88.88,0,0,1-.4.35,2.88,2.88,0,0,1-1.49.24,2.58,2.58,0,0,1-.86-.2h0c-.32-.15-.48-.36-.48-.58h0v.83l0,1.26Z"/><path class="cls-3" d="M28.44,21.06h0a2.58,2.58,0,0,0,.86.2A2.88,2.88,0,0,0,30.8,21a.88.88,0,0,0,.4-.35.5.5,0,0,0,.08-.26.71.71,0,0,0-.44-.53l-.06,0a3,3,0,0,0-2.35,0c-.32.17-.47.38-.47.59S28.12,20.91,28.44,21.06Z"/><path class="cls-2" d="M48.17,22.29a2.76,2.76,0,0,1,.75.1,2.44,2.44,0,0,1,1.39.88.86.86,0,0,1-.08,1.09l-1.95-1h0l3.64,1.86a3,3,0,0,1,2,.07l.18.1.25,0a2.74,2.74,0,0,1,.74.1,2.49,2.49,0,0,1,1.39.88.85.85,0,0,1-.36,1.28l-.2.09-1.75.75-.19.08h0a2.71,2.71,0,0,1-1.33.25v1.71l1.52-.76,2.92-1.43,7.78-3.83-9-4.6L54.48,20h0l-.37-.41a.44.44,0,0,1,.07.21h0v.32l2.17,1.06-2.63,1.31h0a3,3,0,0,1-2.35.05c-.33-.16-.5-.37-.5-.58h0l0-1.27-3.06,1.51.15.09A1.81,1.81,0,0,1,48.17,22.29ZM56.7,23c0-.2.16-.42.48-.58a2.91,2.91,0,0,1,2.35,0c.32.15.48.36.49.57h0v.31l2.17,1.06-2.64,1.32a3,3,0,0,1-2.35,0c-.32-.16-.49-.37-.49-.58h0l0-2.09Z"/><path class="cls-2" d="M53.79,19.27l0,0,.15.09Z"/><path class="cls-4" d="M54.46,25.86h0l0,1.11,0,1h0a.63.63,0,0,1-.29.48,1,1,0,0,1-.19.12l.19-.08L56,27.72l.2-.09a.85.85,0,0,0,.36-1.28,2.49,2.49,0,0,0-1.39-.88,2.74,2.74,0,0,0-.74-.1l-.25,0A.65.65,0,0,1,54.46,25.86Z"/><path class="cls-1" d="M54.5,28h0l0-1,0-1.11h0c0,.22-.15.44-.47.61a2.85,2.85,0,0,1-1.3.25V28.8A2.71,2.71,0,0,0,54,28.55h0a1,1,0,0,0,.19-.12A.63.63,0,0,0,54.5,28Z"/><path class="cls-3" d="M52.69,25.61v1.11a2.85,2.85,0,0,0,1.3-.25c.32-.17.48-.39.47-.61a.65.65,0,0,0-.32-.47l-.18-.1a3,3,0,0,0-2-.07l.76.39h0Z"/><path class="cls-4" d="M60.06,25c0,.21-.15.43-.48.6l2.64-1.32-2.17-1.06,0,1.78Z"/><path class="cls-1" d="M56.74,25.07c0,.21.17.42.49.58a3,3,0,0,0,2.35,0c.33-.17.49-.39.48-.6h0l0-1.78v-.31h0a.45.45,0,0,1-.07.26,1.07,1.07,0,0,1-.4.34,2.94,2.94,0,0,1-1.5.24,2.47,2.47,0,0,1-.85-.2c-.34-.16-.5-.37-.5-.59h0l0,2.09Z"/><path class="cls-3" d="M57.2,23.56a2.47,2.47,0,0,0,.85.2,2.94,2.94,0,0,0,1.5-.24,1.07,1.07,0,0,0,.4-.34.45.45,0,0,0,.07-.26c0-.21-.17-.42-.49-.57a2.91,2.91,0,0,0-2.35,0c-.32.16-.48.38-.48.58S56.86,23.4,57.2,23.56Z"/><path class="cls-4" d="M48.28,23.36l1.95,1a.86.86,0,0,0,.08-1.09,2.44,2.44,0,0,0-1.39-.88,2.76,2.76,0,0,0-.75-.1,1.81,1.81,0,0,0-.23,0,.61.61,0,0,1,.31.46h0Z"/><path class="cls-1" d="M48.27,22.78h0a.58.58,0,0,1-.24.44l.27.14h0Z"/><path class="cls-3" d="M46.91,22.66l.1.05.17.09.83.42a.58.58,0,0,0,.24-.44.61.61,0,0,0-.31-.46l-.15-.09,0,0a3,3,0,0,0-1.93-.11l1,.5Z"/><path class="cls-4" d="M54.22,21.93c0,.21-.16.43-.48.59l2.63-1.31L54.2,20.15l0,1.78Z"/><path class="cls-1" d="M50.89,22c0,.21.17.42.5.58a3,3,0,0,0,2.35-.05h0c.32-.16.48-.38.48-.59h0l0-1.78v-.32h0a.5.5,0,0,1-.08.26.88.88,0,0,1-.4.35,2.88,2.88,0,0,1-1.49.24,2.53,2.53,0,0,1-.86-.2h0c-.32-.16-.49-.37-.48-.59h0l0,.83,0,1.27Z"/><path class="cls-3" d="M51.34,20.48h0a2.53,2.53,0,0,0,.86.2,2.88,2.88,0,0,0,1.49-.24.88.88,0,0,0,.4-.35.5.5,0,0,0,.08-.26.44.44,0,0,0-.07-.21l-.22-.23-.15-.09-.06,0a2.91,2.91,0,0,0-2.35,0c-.32.16-.47.37-.47.58S51,20.32,51.34,20.48Z"/><path class="cls-1" d="M7.35,58.07l2.16-1v0h0l0,1.75h0c0,.21.16.43.48.59h0a3,3,0,0,0,1.76.22,2.24,2.24,0,0,0,.57-.18c.33-.15.49-.36.5-.57h0v-.49h0l0-1.59h0c0,.21-.16.43-.49.58a2.28,2.28,0,0,1-.61.18l-.24,0-.22,0h-.1A2.58,2.58,0,0,1,10,57.31,1,1,0,0,1,9.62,57h0a.46.46,0,0,1-.08-.23v-.06h0c0-.2.18-.39.48-.54a2.7,2.7,0,0,1,1-.2,3,3,0,0,1,.6,0h.07l.07,0h0v-6L6.86,47.44v7.87h0v3l.53-.26Z"/><path class="cls-5" d="M38.74,34.9a2.85,2.85,0,0,1,1.5-.19v-1h0v-2l-5.76-2.95h0L31.6,27.32l-.52-.26-1.14-.58-.53-.28v4.72h0v.37l.22-.11.14-.07h0l.1.05,3.93,2,2.06,1,1.68.86h0l.11.06.58.29A.73.73,0,0,1,38.74,34.9Z"/><polygon class="cls-5" points="29.41 26.2 29.41 26.2 29.41 26.2 29.41 26.2"/><path class="cls-6" d="M35.27,23.31l.16.09.24,0a2.89,2.89,0,0,1,.76.1l.09,0a3.54,3.54,0,0,1,.54.22l.09.05a2.31,2.31,0,0,1,.69.59.87.87,0,0,1-.37,1.3l-.38.17-1.4.6-.39.17a3,3,0,0,1-2.39,0c-.33-.16-.5-.38-.51-.59h0l0-1.31-1.93.95-1,.5h0l.53.28,1.14.58.52.26,2.87,1.47h0l5.76,2.95h0L42,30.86h0L47.78,28h0l3.34-1.65.19-.09.77-.38.6-.29-.76-.39-3.64-1.86L48,23.22l-.83-.42L47,22.71l-.1-.05-.12-.06-1-.5-4-2-.53.26c.29.16.44.35.45.55h0v.32L44,22.28l-2.67,1.33h0a2.94,2.94,0,0,1-1.73.23,2.55,2.55,0,0,1-.66-.18,1,1,0,0,1-.45-.38.56.56,0,0,1-.06-.21h0l0-1.29L37,22.49l-.68.33Zm9.06.76a.5.5,0,0,1,0-.16.9.9,0,0,1,.46-.44l.09,0a3.4,3.4,0,0,1,.34-.12,2.51,2.51,0,0,1,.49-.08,3,3,0,0,1,1.47.19l.16.1a.64.64,0,0,1,.34.48h0v.32l.56.27,1.64.81-2.67,1.33h0a2.84,2.84,0,0,1-1.5.25h0a2.64,2.64,0,0,1-.88-.2.81.81,0,0,1-.49-.5h0a.24.24,0,0,1,0-.08h0l0-2.13Zm-5.65,3a.66.66,0,0,1,.34-.5l.07,0,.07,0,.08,0,.07,0a3.09,3.09,0,0,1,2.24,0l.19.11.24,0h0a2.55,2.55,0,0,1,.72.1,2.47,2.47,0,0,1,1.41.89.88.88,0,0,1-.37,1.31L42,29.56h0l-.4.18h0a3,3,0,0,1-2.39,0c-.33-.16-.5-.37-.5-.59h0l0-2.13Z"/><path class="cls-7" d="M52.69,28.5V25.61h0l-.6.29-.77.38-.19.09L47.78,28h0L42,30.86h0l-1.77.87h0v2h0v1h0l.11,0,0,0,.06,0a2,2,0,0,1,.62.2,1.05,1.05,0,0,1,.37.3l.57.28h0l.25.12,1.08-.53,0-.8h0a.66.66,0,0,1,.31-.48l.1-.07h0l.06,0a3,3,0,0,1,2.35,0l0,0,.36-.18,1.72-.84,1-.49,0-.82h0a.75.75,0,0,1,.48-.59,2.91,2.91,0,0,1,2.35,0l.06,0,.37-.19.13-.06h0v-2Z"/><path class="cls-8" d="M42,26.83a0,0,0,0,1,0,0,.42.42,0,0,1,0,.15h0l0,2.13h0a.46.46,0,0,1-.08.24v0a1,1,0,0,1-.4.35h0l.4-.18h0l1.76-.75a.88.88,0,0,0,.37-1.31,2.47,2.47,0,0,0-1.41-.89,2.55,2.55,0,0,0-.72-.1h0l-.24,0A.76.76,0,0,1,42,26.83Z"/><path class="cls-5" d="M38.72,29.19c0,.22.17.43.5.59a3,3,0,0,0,2.39,0h0a1,1,0,0,0,.4-.35v0a.46.46,0,0,0,.08-.24h0l0-2.13h0a.41.41,0,0,1,0,.19v0a.93.93,0,0,1-.44.41,3,3,0,0,1-2.39,0h0c-.33-.16-.5-.38-.5-.6h0l0,2.13Z"/><path class="cls-9" d="M39.18,27.66h0a3,3,0,0,0,2.39,0,.93.93,0,0,0,.44-.41v0a.41.41,0,0,0,0-.19.42.42,0,0,0,0-.15,0,0,0,0,0,0,0,.76.76,0,0,0-.27-.3l-.19-.11a3.09,3.09,0,0,0-2.24,0l-.07,0-.08,0-.07,0-.07,0a.66.66,0,0,0-.34.5C38.68,27.28,38.85,27.5,39.18,27.66Z"/><path class="cls-8" d="M47.77,26.14h0c0,.21-.16.43-.48.6l2.67-1.33L48.3,24.6l-.56-.27,0,1.16Z"/><path class="cls-5" d="M44.37,26.2a.24.24,0,0,0,0,.08h0a.81.81,0,0,0,.49.5,2.64,2.64,0,0,0,.88.2h0a2.84,2.84,0,0,0,1.5-.25h0c.32-.17.48-.39.48-.6h0v-.65l0-1.16V24h0a.5.5,0,0,1-.08.26,1,1,0,0,1-.4.36,3,3,0,0,1-1.52.24,2.56,2.56,0,0,1-.77-.17l-.1,0c-.34-.16-.51-.38-.51-.6h0l0,2.13Z"/><path class="cls-9" d="M44.84,24.67l.1,0a2.56,2.56,0,0,0,.77.17,3,3,0,0,0,1.52-.24,1,1,0,0,0,.4-.36.5.5,0,0,0,.08-.26.64.64,0,0,0-.34-.48l-.16-.1a3,3,0,0,0-1.47-.19,2.51,2.51,0,0,0-.49.08,3.4,3.4,0,0,0-.34.12l-.09,0a.9.9,0,0,0-.46.44.5.5,0,0,0,0,.16C44.33,24.29,44.5,24.51,44.84,24.67Z"/><path class="cls-8" d="M35.74,23.87h0v.47l0,1.66h0a.59.59,0,0,1-.25.46l-.23.15.39-.17,1.4-.6.38-.17a.87.87,0,0,0,.37-1.3,2.31,2.31,0,0,0-.69-.59l-.09-.05a3.54,3.54,0,0,0-.54-.22l-.09,0a2.89,2.89,0,0,0-.76-.1l-.24,0a1,1,0,0,1,.15.13A.51.51,0,0,1,35.74,23.87Z"/><path class="cls-5" d="M32.4,26.06c0,.21.18.43.51.59a3,3,0,0,0,2.39,0l.23-.15a.59.59,0,0,0,.25-.46h0l0-1.66v-.47h0a.6.6,0,0,1-.29.5l-.19.12a2.87,2.87,0,0,1-1.46.25,2.65,2.65,0,0,1-.93-.21h0l0,0c-.31-.16-.47-.37-.47-.58h0v.82l0,1.31Z"/><path class="cls-9" d="M32.84,24.51l0,0h0a2.65,2.65,0,0,0,.93.21,2.87,2.87,0,0,0,1.46-.25l.19-.12a.6.6,0,0,0,.29-.5.51.51,0,0,0-.16-.34,1,1,0,0,0-.15-.13l-.16-.09,0,0a2.8,2.8,0,0,0-1.12-.22,2.73,2.73,0,0,0-1.27.27c-.32.16-.48.38-.48.59S32.53,24.35,32.84,24.51Z"/><path class="cls-8" d="M41.81,23c0,.21-.16.43-.48.6h0L44,22.28,41.8,21.2l0,1.81Z"/><path class="cls-5" d="M38.43,23.07a.56.56,0,0,0,.06.21,1,1,0,0,0,.45.38,2.55,2.55,0,0,0,.66.18,2.94,2.94,0,0,0,1.73-.23h0c.32-.17.48-.39.48-.6h0l0-1.81v-.32h0a.5.5,0,0,1-.08.26,1,1,0,0,1-.4.36,3,3,0,0,1-1.52.24,2.58,2.58,0,0,1-.87-.2h0c-.33-.16-.5-.37-.5-.59h0l0,.84,0,1.29Z"/><path class="cls-9" d="M38.89,21.53h0a2.58,2.58,0,0,0,.87.2,3,3,0,0,0,1.52-.24,1,1,0,0,0,.4-.36.5.5,0,0,0,.08-.26c0-.2-.16-.39-.45-.55l0,0a3,3,0,0,0-2.39,0,.77.77,0,0,0-.49.6C38.39,21.16,38.56,21.37,38.89,21.53Z"/><path class="cls-1" d="M36.09,54.5l0,0h0l-1.64-.84-2.17-1.11-2.46-1.25-1.36-.7-.16-.08-.05,0h0v5h0v0h0v2.76h0l.05,0,.18.09h0a2.2,2.2,0,0,1,.36.13,1.17,1.17,0,0,1,.27.19l.65.34,2.46,1.25,2.23,1.14,1.61.83h0l.05,0,.92.47,1.79.91h0V61h0v0h0V55.91L37.05,55Z"/><polygon class="cls-1" points="38.86 79.59 38.86 79.59 38.85 79.59 38.86 79.59"/><polygon class="cls-1" points="6.87 47.44 6.87 47.44 6.87 47.44 6.87 47.44"/><path class="cls-2" d="M13,47.59v0l0,0,.27-.14Z"/><path class="cls-2" d="M13,44.66a2.87,2.87,0,0,1,.75.1,2.44,2.44,0,0,1,1.38.88.83.83,0,0,1,.1.8l.11,0v-.31h0c0-.21.17-.41.49-.57a2.87,2.87,0,0,1,1.61-.17h0v-.18a2.83,2.83,0,0,1-1.29-.21c-.33-.16-.49-.37-.5-.58h0l0-1.27L12.64,44.6l.15.09Z"/><path class="cls-2" d="M11.73,49.93V48.22h0l.37-.19a3,3,0,0,1-1.8-.15c-.33-.16-.49-.37-.5-.58h0l0-1.29-2.9,1.43h0l4.87,2.49Z"/><path class="cls-4" d="M13.26,47.46l0,0,2-1a.83.83,0,0,0-.1-.8,2.44,2.44,0,0,0-1.38-.88,2.87,2.87,0,0,0-.75-.1l-.24,0a.61.61,0,0,1,.31.46h0l0,2.09h0a.51.51,0,0,1,0,.17l0,.05a.41.41,0,0,1-.07.11v0Z"/><path class="cls-1" d="M9.81,47.3c0,.21.17.42.5.58a3,3,0,0,0,1.8.15L13,47.6l0,0a.41.41,0,0,0,.07-.11l0-.05a.51.51,0,0,0,0-.17h0l0-2.09h0c0,.21-.15.43-.47.6a3,3,0,0,1-2.36,0l0,0c-.31-.16-.46-.36-.46-.57h0V46l0,1.29Z"/><path class="cls-3" d="M10.24,45.78l0,0a3,3,0,0,0,2.36,0c.32-.17.48-.39.47-.6a.61.61,0,0,0-.31-.46l-.15-.09,0,0a3,3,0,0,0-2.36,0c-.31.17-.47.38-.47.59S9.93,45.62,10.24,45.78Z"/><path class="cls-1" d="M15.74,44.36c0,.21.17.42.5.58a2.83,2.83,0,0,0,1.29.21v.18l.07,0,.27.14c.12,0,.25.07.36.12a1.18,1.18,0,0,1,.27.2l3.07,1.57,1.78.91,1.78.91h0l1.25.64,1.6.82.19.1h0v-.18h0v-.06h0V47.64h0V46.05h0V42.59l-1.81-.92-1-.52L19.11,38l-1.58-.81v5.92a3.69,3.69,0,0,1-.47,0,2.47,2.47,0,0,1-.85-.2h0c-.33-.16-.49-.37-.49-.59h0v.83l0,1.27Z"/><path class="cls-3" d="M16.2,42.85h0a2.47,2.47,0,0,0,.85.2,3.69,3.69,0,0,0,.47,0V41.43a2.81,2.81,0,0,0-1.35.25c-.31.16-.47.37-.47.58S15.87,42.69,16.2,42.85Z"/><path class="cls-2" d="M64.83,41h0v.31L67,42.41,64.4,43.72a2.66,2.66,0,0,1-1.05.25v1.12c.3.15.46.35.47.55h0V46l1.28.62a3.2,3.2,0,0,1,.67.1,2.46,2.46,0,0,1,1.39.88l.06.11L66,47l-.82.41-1.46.73-.3.15h0a2.94,2.94,0,0,1-1.55.22h0a2.65,2.65,0,0,1-.71-.19c-.32-.15-.49-.36-.49-.57h0l0-2.08h0a.53.53,0,0,1,.2-.39l-1.8.92-1.3.66-1.85,1h0l-3.08,1.57-.17.09-.84.43-.56.28v.08l1.57.78,2.5,1.25.4.2.19.09.94.47.19.1h0l.24-.12,1-.5.37-.18.22-.12.24-.12,2.59-1.33h0L63.16,50l.19-.09.33-.17,1.07-.55.11-.05.31-.16,0,0,.67-.34,1.44-.74.17-.08v1.89l.24-.12,7.84-3.87L64.91,40.24l-.52.26A.71.71,0,0,1,64.83,41Zm-4.6,9.1h0a.88.88,0,0,1-.26.19L58.49,51l-.47.2-.17.07h0a2.85,2.85,0,0,1-1.92.17,2.2,2.2,0,0,1-.41-.12,1,1,0,0,1-.4-.31.5.5,0,0,1-.1-.27h0l0-2.08h0c0-.21.15-.42.47-.58a2,2,0,0,1,.39-.14h0a2.92,2.92,0,0,1,1.94.1,1,1,0,0,1,.17.1l.25,0a2.74,2.74,0,0,1,.74.1,2.44,2.44,0,0,1,1.38.87A.84.84,0,0,1,60.23,50.13Zm7.25-2.35Zm-.13-3.61a.73.73,0,0,1,.48-.58,3,3,0,0,1,2.35-.05c.33.16.49.36.5.57h0v.31l2.17,1.07L70.24,46.8h0a2.91,2.91,0,0,1-2.35,0c-.33-.15-.5-.36-.5-.57h0l0-2.1Z"/><path class="cls-10" d="M67.48,49.67V47.78l-.17.08-1.44.74-.67.34,0,0-.31.16-.11.05-1.07.55-.33.17-.19.09-1.61.83h0l-2.59,1.33-.24.12-.22.12-.37.18-1,.5-.24.12h0V54.9h0V55h0V56.3h0v.84h0v2.08h0v1.67h0v0h0V61l0,0,.14-.08h0l.07,0,1.33-.67L60.94,59a.94.94,0,0,1,.39-.33l.05,0,.06,0h0a2.13,2.13,0,0,1,.54-.16l1.18-.61.16-.08h0l1.82-.93,1.23-.63a.76.76,0,0,1,.09-.18h0a.6.6,0,0,1,.08-.08.93.93,0,0,1,.27-.19,2.2,2.2,0,0,1,.36-.13l.2-.07h.07v0h0v0h0l.1.05a3,3,0,0,1,1.61.17c.32.16.48.36.49.57h0v.18h0v.12l2.15,1.05,0,0,1.51.76h0l-5.87,3-1.84.94-1.8.92-.49.25h0l-.58.3v1.85h0v5.88h0l4.72-2.41,5-2.54h0a1.46,1.46,0,0,1,.26-.18,1.51,1.51,0,0,1,.32-.11h0l.27-.13h0V60.23l2.23-1.14V53.57h0V45.69h0l-7.84,3.87Z"/><path class="cls-4" d="M66,47l1.28.64-.06-.11a2.46,2.46,0,0,0-1.39-.88,3.2,3.2,0,0,0-.67-.1L66,47Z"/><path class="cls-4" d="M70.72,46.21c0,.21-.16.42-.48.59h0l2.63-1.31L70.7,44.42l0,1.79Z"/><path class="cls-1" d="M67.39,46.27c0,.21.17.42.5.57a2.91,2.91,0,0,0,2.35,0h0c.32-.17.48-.38.48-.59h0l0-1.79v-.31h0a.5.5,0,0,1-.08.26.88.88,0,0,1-.4.35,2.9,2.9,0,0,1-1.49.24,2.53,2.53,0,0,1-.86-.2c-.33-.16-.5-.37-.5-.59h0l0,2.1Z"/><path class="cls-3" d="M67.85,44.76a2.53,2.53,0,0,0,.86.2,2.9,2.9,0,0,0,1.49-.24.88.88,0,0,0,.4-.35.5.5,0,0,0,.08-.26c0-.21-.17-.41-.5-.57a3,3,0,0,0-2.35.05.73.73,0,0,0-.48.58C67.35,44.39,67.52,44.6,67.85,44.76Z"/><path class="cls-4" d="M64.87,43.13c0,.21-.15.42-.47.59L67,42.41l-2.17-1.07,0,1.79Z"/><path class="cls-1" d="M64.87,43.13h0l0-1.79V41h0a.41.41,0,0,1-.07.26,1,1,0,0,1-.4.35,2.46,2.46,0,0,1-1,.24v2h0V44a2.66,2.66,0,0,0,1.05-.25C64.72,43.55,64.88,43.34,64.87,43.13Z"/><path class="cls-3" d="M63.35,40.26V41h0v.87a2.46,2.46,0,0,0,1-.24,1,1,0,0,0,.4-.35.41.41,0,0,0,.07-.26.71.71,0,0,0-.44-.53h0l0,0A2.57,2.57,0,0,0,63.35,40.26Z"/><polygon class="cls-1" points="17.53 37.13 17.53 37.14 17.53 37.14 17.53 37.13"/><path class="cls-2" d="M25.38,41.15l1,.52,1.81.92h0l1.56-.77h0l2.81-1.38,2.07-1V37.83a3,3,0,0,1-1.9-.12l-.13-.07-.11-.07h0a.59.59,0,0,1-.26-.43h0l0-1.45V35h0c0-.21.16-.42.47-.59a3,3,0,0,1,2.36,0c.32.16.48.36.49.57h0v.31l.77.38h0l.12.06.91.44.84-.41v-.31h0v0l-.58-.29-.11-.06h0l-1.68-.86-2.06-1-3.93-2-.1-.05h0l-.14.07-.22.11-.15.08.15.08a.64.64,0,0,1,.29.45h0v.31l.05,0h0l2.12,1-.82.42-1.2.59-.1,0h0l-.11.06-.4.2a2.12,2.12,0,0,1-.7.21l-.33,0a2.67,2.67,0,0,1-1.32-.21c-.33-.15-.5-.36-.5-.58h0l0-1.26-1,.47h0l-1.73.85-.36.18a.51.51,0,0,1,.16.09,1.81,1.81,0,0,1,.23,0,2.76,2.76,0,0,1,.75.1,2.39,2.39,0,0,1,1.39.88.85.85,0,0,1-.37,1.28l-.09,0h0l-.13.06-1.9.82h0a3,3,0,0,1-2.35,0c-.33-.16-.5-.37-.5-.58h0l0-1.29-1.33.65-1.58.78h0l1.58.81ZM26.66,38a.6.6,0,0,1,.23-.43l.1-.07h0l.14-.09a2.91,2.91,0,0,1,2.35,0l.18.1h.25a2.74,2.74,0,0,1,.74.1,2.92,2.92,0,0,1,1,.46h0l.09.07a2.09,2.09,0,0,1,.33.34.85.85,0,0,1-.37,1.28l-.27.12-1.63.7h0l-.19.09h0a3,3,0,0,1-2.35,0,1,1,0,0,1-.33-.24h0a.49.49,0,0,1-.15-.33h0v-.71l0-1.38Z"/><path class="cls-10" d="M28.2,50.69v-.23h0l1.55-.77h0L31.1,49h0v-.79h0a.65.65,0,0,1,.35-.51l.12-.08a3,3,0,0,1,2.36,0h0l.74-.36h0l-.05,0V39.41h0l-2.07,1L29.77,41.8h0l-1.56.77h0V46h0v1.58h0v2.82h0v.06h0v.18h0Z"/><path class="cls-4" d="M29.77,37.55a.59.59,0,0,1,.21.38h0l0,.86h0v.31L30,40h0a.58.58,0,0,1-.25.44h0l0,0-.19.12.19-.09h0l1.63-.7.27-.12A.85.85,0,0,0,32,38.42a2.09,2.09,0,0,0-.33-.34L31.62,38h0a2.92,2.92,0,0,0-1-.46,2.74,2.74,0,0,0-.74-.1h-.25a.53.53,0,0,1,.11.09Z"/><path class="cls-1" d="M26.67,39.83v.25h0a.49.49,0,0,0,.15.33h0a1,1,0,0,0,.33.24,3,3,0,0,0,2.35,0h0l.19-.12,0,0h0A.58.58,0,0,0,30,40h0l0-.91V38.8h0l0-.86h0a.57.57,0,0,1-.21.41h0a1,1,0,0,1-.27.19,1.16,1.16,0,0,1-.28.1h0l-.14,0a2.94,2.94,0,0,1-1.93-.11h0c-.33-.15-.5-.37-.49-.58h0l0,1.38Z"/><path class="cls-3" d="M27.15,38.57h0a2.94,2.94,0,0,0,1.93.11l.14,0h0a1.16,1.16,0,0,0,.28-.1,1,1,0,0,0,.27-.19h0a.57.57,0,0,0,.21-.41.59.59,0,0,0-.21-.38h0a.53.53,0,0,0-.11-.09l-.18-.1a2.91,2.91,0,0,0-2.35,0l-.14.09h0l-.1.07a.6.6,0,0,0-.23.43C26.65,38.2,26.82,38.42,27.15,38.57Z"/><polygon class="cls-4" points="35.58 36.06 35.58 36.17 35.59 36.73 35.6 37.06 35.97 36.88 36.07 36.83 36.07 36.83 37.38 36.18 36.47 35.74 36.35 35.68 36.34 35.67 35.57 35.29 35.58 36.05 35.58 36.06"/><path class="cls-1" d="M34.65,37.52h0l.58-.28.37-.18v-1h0V35h0c0,.22-.15.44-.47.61a3,3,0,0,1-2.36,0c-.33-.16-.49-.37-.49-.59h0v.65l0,1.45h0a.59.59,0,0,0,.26.43h0l.11.07.13.07a3,3,0,0,0,1.9.12v-.31Z"/><path class="cls-3" d="M32.71,35.63a3,3,0,0,0,2.36,0c.32-.17.48-.39.47-.61s-.17-.41-.49-.57a3,3,0,0,0-2.36,0c-.31.17-.47.38-.47.59S32.38,35.47,32.71,35.63Z"/><path class="cls-4" d="M23.77,34.85h0l0,1h0v1.07h0c0,.21-.16.43-.48.6l1.9-.82.13-.06h0l.09,0a.85.85,0,0,0,.37-1.28,2.39,2.39,0,0,0-1.39-.88,2.76,2.76,0,0,0-.75-.1,1.81,1.81,0,0,0-.23,0A.6.6,0,0,1,23.77,34.85Z"/><path class="cls-1" d="M20.46,37h0c0,.21.17.42.5.58a3,3,0,0,0,2.35,0h0c.32-.17.48-.39.48-.6h0V35.87h0l0-1h0c0,.21-.15.43-.48.6a.85.85,0,0,1-.17.06h0l-.15.05a2.94,2.94,0,0,1-2-.07h0c-.31-.16-.47-.37-.47-.58a.62.62,0,0,1,.31-.47.41.41,0,0,1,.11-.07h0l.06,0a2.91,2.91,0,0,1,2.35,0l0,0,.36-.18,1.73-.85h0l1-.47,0,1.26h0c0,.22.17.43.5.58a2.67,2.67,0,0,0,1.32.21l.33,0a2.12,2.12,0,0,0,.7-.21,1,1,0,0,0,.32-.24l.05-.06a.53.53,0,0,0,.11-.29h0v-.51l0-1.27V31.9h0a.5.5,0,0,1-.08.26.9.9,0,0,1-.21.23l-.19.12a2.9,2.9,0,0,1-1.49.24,2.47,2.47,0,0,1-.86-.2h0c-.32-.15-.49-.37-.49-.58a.76.76,0,0,1,.48-.59,3,3,0,0,1,2.35,0l.06,0,.15-.08v-.37L28,30.19l-1.08-.55-7.78-4v7.8h0v2.89l1.33-.65Z"/><path class="cls-3" d="M20.92,34.32l-.06,0h0a.41.41,0,0,0-.11.07.62.62,0,0,0-.31.47c0,.21.16.42.47.58h0a2.94,2.94,0,0,0,2,.07l.15-.05h0a.85.85,0,0,0,.17-.06c.33-.17.49-.39.48-.6a.6.6,0,0,0-.31-.46.51.51,0,0,0-.16-.09l0,0A2.91,2.91,0,0,0,20.92,34.32Z"/><path class="cls-4" d="M29.76,34h0a.53.53,0,0,1-.11.29l-.05.06a1,1,0,0,1-.32.24l.4-.2.11-.06h0l.1,0,1.2-.59.82-.42-2.12-1h0l-.05,0,0,1.27Z"/><path class="cls-3" d="M26.85,31.37a.76.76,0,0,0-.48.59c0,.21.17.43.49.58h0a2.47,2.47,0,0,0,.86.2,2.9,2.9,0,0,0,1.49-.24l.19-.12a.9.9,0,0,0,.21-.23.5.5,0,0,0,.08-.26.64.64,0,0,0-.29-.45l-.15-.08-.06,0A3,3,0,0,0,26.85,31.37Z"/><polygon class="cls-1" points="48.29 40.56 44.83 38.8 44.83 41.36 44.83 42.17 44.83 42.25 44.83 42.27 44.83 42.99 44.83 45.07 44.83 46.63 44.79 46.65 44.79 46.65 44.79 46.65 48.29 48.44 49.3 48.96 51.09 49.88 51.1 49.88 51.1 49.88 51.1 49.87 51.1 49.87 51.1 48.16 51.1 47.92 51.1 47.09 51.1 47.06 51.1 46.29 51.1 46.08 51.1 45.46 51.1 45.25 51.1 44.44 51.1 42.13 51.1 42 49.3 41.08 48.29 40.56"/><polygon class="cls-2" points="43.35 35.12 42.27 35.65 43.37 36.2 43.35 35.12"/><path class="cls-2" d="M52.54,30.59l-.37.19a.7.7,0,0,1,.44.54h0v.31l0,0h0l2.11,1L54,33.1l-1.18.6-.12,0-.5.26h0a2.39,2.39,0,0,1-.57.19l-.13,0-.34,0a2.89,2.89,0,0,1-1.31-.21c-.33-.16-.5-.37-.5-.58h0l0-1.27-1,.49-1.72.84-.36.18.16.09a1.81,1.81,0,0,1,.23,0,2.76,2.76,0,0,1,.75.1,2.49,2.49,0,0,1,1.39.88.84.84,0,0,1,.07.82.8.8,0,0,1-.44.46l-.1,0h0l-.13.06-1.9.81h0a2,2,0,0,1-.63.2,3.41,3.41,0,0,1-.78.05v1.59h0l3.46,1.76,1,.52,1.8.92h0l1.56-.77h0l2.82-1.39L63.34,36l-2.76-1.41-.12-.06h0l-1.67-.85-2.07-1.06-3.93-2-.09-.05h0Zm2.59,3.87a.73.73,0,0,1,.47-.59,2.94,2.94,0,0,1,2.36,0c.32.15.48.36.49.57h0v.31l.77.37h0l.12.06,1.27.62L58,37.09h0a3,3,0,0,1-2.35,0l-.14-.08-.1-.07h0a.55.55,0,0,1-.24-.42h0l0-2.09Zm-.55,4.66-.27.11-1.64.71h0l-.19.08h0a2.91,2.91,0,0,1-2.35,0,1.27,1.27,0,0,1-.33-.23l0,0a.46.46,0,0,1-.15-.33h0v-.7l0-1.39h0A.58.58,0,0,1,49.8,37l.09-.07h0a.71.71,0,0,1,.14-.1,3,3,0,0,1,2.35,0,.78.78,0,0,1,.18.11h.25a2.74,2.74,0,0,1,.74.1,2.68,2.68,0,0,1,1,.45h0l.09.07a2.09,2.09,0,0,1,.33.34A.86.86,0,0,1,54.58,39.12Z"/><path class="cls-4" d="M54.53,37.42h0a2.68,2.68,0,0,0-1-.45,2.74,2.74,0,0,0-.74-.1h-.25a.39.39,0,0,1,.1.08.56.56,0,0,1,.22.38h0l0,.86h0v.32l0,.91h0a.61.61,0,0,1-.26.46l0,0-.19.12.19-.08h0l1.64-.71.27-.11A.86.86,0,0,0,55,37.83a2.09,2.09,0,0,0-.33-.34Z"/><path class="cls-1" d="M52.67,39.89a.61.61,0,0,0,.26-.46h0l0-.91V38.2h0l0-.86h0a.58.58,0,0,1-.22.43,1.46,1.46,0,0,1-.26.18,2.31,2.31,0,0,1-.28.1h0L52,38.1A3,3,0,0,1,50.06,38c-.33-.16-.49-.37-.49-.59h0l0,1.39v.7h0a.46.46,0,0,0,.15.33l0,0a1.27,1.27,0,0,0,.33.23,2.91,2.91,0,0,0,2.35,0h0l.19-.12Z"/><path class="cls-3" d="M50.06,38A3,3,0,0,0,52,38.1l.15-.05h0a2.31,2.31,0,0,0,.28-.1,1.46,1.46,0,0,0,.26-.18.58.58,0,0,0,.22-.43.56.56,0,0,0-.22-.38.39.39,0,0,0-.1-.08.78.78,0,0,0-.18-.11,3,3,0,0,0-2.35,0,.71.71,0,0,0-.14.1h0L49.8,37a.58.58,0,0,0-.23.42C49.57,37.62,49.73,37.83,50.06,38Z"/><path class="cls-4" d="M58.49,35.46v.12l0,.91h0c0,.21-.15.43-.47.6l2.63-1.32-1.27-.62-.12-.06h0l-.77-.37v.75Z"/><path class="cls-1" d="M55.17,36.55a.55.55,0,0,0,.24.42h0l.1.07.14.08a3,3,0,0,0,2.35,0h0c.32-.17.48-.39.47-.6h0l0-.91v-.12h0V34.4h0a.4.4,0,0,1-.08.26A1,1,0,0,1,58,35a2.74,2.74,0,0,1-1.5.24,2.58,2.58,0,0,1-.86-.19c-.33-.16-.49-.38-.49-.59h0l0,2.09Z"/><path class="cls-3" d="M55.62,35.05a2.58,2.58,0,0,0,.86.19A2.74,2.74,0,0,0,58,35a1,1,0,0,0,.39-.34.4.4,0,0,0,.08-.26c0-.21-.17-.42-.49-.57a2.94,2.94,0,0,0-2.36,0,.73.73,0,0,0-.47.59C55.13,34.67,55.29,34.89,55.62,35.05Z"/><path class="cls-4" d="M46.68,34.26h0l0,1h0v.13l0,.94h0a.48.48,0,0,1-.12.31,1.09,1.09,0,0,1-.36.29h0l1.9-.81.13-.06h0l.1,0a.8.8,0,0,0,.44-.46.84.84,0,0,0-.07-.82,2.49,2.49,0,0,0-1.39-.88,2.76,2.76,0,0,0-.75-.1,1.81,1.81,0,0,0-.23,0A.63.63,0,0,1,46.68,34.26Z"/><path class="cls-1" d="M44.82,36.93h0v.26a3.41,3.41,0,0,0,.78-.05,2,2,0,0,0,.63-.2h0a1.09,1.09,0,0,0,.36-.29.48.48,0,0,0,.12-.31h0l0-.94v-.13h0l0-1h0c0,.22-.15.44-.48.61l-.17.06h0l-.14,0a2.94,2.94,0,0,1-2-.07h0l0,0c-.31-.16-.47-.36-.47-.57h0l0,.8,0,1.08Z"/><path class="cls-3" d="M43.82,34.89l0,0h0a2.94,2.94,0,0,0,2,.07l.14,0h0l.17-.06c.33-.17.49-.39.48-.61a.63.63,0,0,0-.31-.46l-.16-.09,0,0a3,3,0,0,0-2.35,0l-.06,0h0l-.1.07a.66.66,0,0,0-.31.48C43.35,34.53,43.51,34.73,43.82,34.89Z"/><path class="cls-4" d="M52.67,33.41h0a.48.48,0,0,1-.11.29l0,.06a1.23,1.23,0,0,1-.32.25h0l.5-.26.12,0L54,33.1l.83-.41-2.11-1h0l0,0,0,1.26Z"/><path class="cls-1" d="M49.32,33.47c0,.21.17.42.5.58a2.89,2.89,0,0,0,1.31.21l.34,0,.13,0a2.39,2.39,0,0,0,.57-.19h0a1.23,1.23,0,0,0,.32-.25l0-.06a.48.48,0,0,0,.11-.29h0v-.52l0-1.26v-.31h0a.56.56,0,0,1-.08.26,1,1,0,0,1-.4.34,2.9,2.9,0,0,1-1.49.24,2.31,2.31,0,0,1-.86-.2h0c-.32-.16-.49-.37-.49-.58h0l0,.82,0,1.27Z"/><path class="cls-3" d="M49.77,32h0a2.31,2.31,0,0,0,.86.2,2.9,2.9,0,0,0,1.49-.24,1,1,0,0,0,.4-.34.56.56,0,0,0,.08-.26.7.7,0,0,0-.44-.54l-.06,0a2.91,2.91,0,0,0-2.35,0,.75.75,0,0,0-.48.59C49.28,31.59,49.45,31.8,49.77,32Z"/><polygon class="cls-11" points="83.94 60.74 83.94 60.74 83.94 60.73 83.94 60.74"/><path class="cls-11" d="M73.35,66.16h0l.1,0a2.87,2.87,0,0,1,1.61.17c.32.15.48.36.49.56h0v.31l2.15,1.06,0,0,1.52.75h0l-5.86,3h0l-1.93,1-2.8,1.43v7.88h0L79.21,77V71l4.73-2.42V60.74L73.35,66.15Z"/><path class="cls-12" d="M78.07,57.81l-.26.14a2.11,2.11,0,0,1,.36-.09Z"/><path class="cls-12" d="M82.42,60l-2.58,1.29h0a3,3,0,0,1-2.34,0c-.32-.15-.49-.36-.49-.57h0l0-2.08h0a.57.57,0,0,1,.2-.39l-1.59.82-2.23,1.14v.53a2.38,2.38,0,0,1,.91.2.78.78,0,0,1,.18.11l.24,0a2.74,2.74,0,0,1,.74.1l.16.06A2.4,2.4,0,0,1,76.8,62a.86.86,0,0,1-.37,1.28l-2.12.91h0a2.61,2.61,0,0,1-1,.24v1.71h0l10.59-5.41h0Z"/><path class="cls-13" d="M74.75,61.52h0v.36l0,1.72h0c0,.21-.16.43-.48.6l2.12-.91A.86.86,0,0,0,76.8,62a2.4,2.4,0,0,0-1.22-.81l-.16-.06a2.74,2.74,0,0,0-.74-.1l-.24,0A.6.6,0,0,1,74.75,61.52Z"/><path class="cls-14" d="M74.79,63.6h0l0-1.72v-.36h0c0,.22-.15.44-.47.61a2.65,2.65,0,0,1-.93.23v2.08a2.61,2.61,0,0,0,1-.24h0C74.63,64,74.79,63.81,74.79,63.6Z"/><polygon class="cls-15" points="82.42 59.98 82.46 59.96 80.3 58.91 80.3 58.92 82.42 59.98"/><path class="cls-13" d="M80.33,60.68h0c0,.21-.15.42-.47.59L82.42,60,80.3,58.92Z"/><path class="cls-14" d="M80.19,58.87a.94.94,0,0,1-.39.33,2.86,2.86,0,0,1-1.48.24,2.47,2.47,0,0,1-.85-.2c-.33-.16-.5-.37-.5-.58h0l0,2.08h0c0,.21.17.42.49.57a3,3,0,0,0,2.34,0h0c.32-.17.48-.38.47-.59h0l0-1.76h0V58.6h0a.56.56,0,0,1-.08.26Z"/><path class="cls-16" d="M73.35,61.55v.81a2.65,2.65,0,0,0,.93-.23c.32-.17.48-.39.47-.61a.6.6,0,0,0-.31-.45.78.78,0,0,0-.18-.11,2.38,2.38,0,0,0-.91-.2v.79Z"/><path class="cls-16" d="M77.47,59.24a2.47,2.47,0,0,0,.85.2,2.86,2.86,0,0,0,1.48-.24.94.94,0,0,0,.39-.33h0a.56.56,0,0,0,.08-.26c0-.21-.18-.41-.5-.57a2.86,2.86,0,0,0-1.61-.17,2.11,2.11,0,0,0-.36.09,1.69,1.69,0,0,0-.36.12,1.06,1.06,0,0,0-.28.2.57.57,0,0,0-.2.39C77,58.87,77.14,59.08,77.47,59.24Z"/><polygon class="cls-2" points="56.89 60.89 56.89 59.22 56.89 59.22 56.89 60.89 56.89 60.89"/><rect class="cls-2" x="56.89" y="55.01" height="0.53"/><polygon class="cls-17" points="56.89 56.1 56.89 56.3 56.89 56.3 56.89 56.3 56.89 56.33 56.89 56.36 56.89 57.14 56.89 57.14 56.89 56.36 56.89 56.33 56.89 56.3 56.89 56.3 56.89 56.3 56.89 56.1 56.89 55.54 56.89 55.54 56.89 56.1"/><polygon class="cls-10" points="46.34 82.1 46.34 82.1 46.34 82.1 46.39 82.08 46.34 82.05 46.34 82.1"/><rect class="cls-10" x="62.7" y="71.62" width="0.1" transform="translate(-32.26 65.35) rotate(-45)"/><path class="cls-2" d="M67.58,55.53l-.1-.05h0v0h0v0h.1Z"/><path class="cls-2" d="M58.79,61.84h0l.05,0,1.67.83,2.23,1.12h0l.58-.3h0l.49-.25,1.8-.92,1.84-.94,5.87-3h0l-1.51-.76-2.58,1.29h0a3,3,0,0,1-1.77.22,2.38,2.38,0,0,1-.57-.18c-.33-.15-.49-.36-.49-.57h0v-.32h0l0-1.75h0a.5.5,0,0,1,0-.12l-1.23.63-1.82.93h0l-.16.08L62,58.47a3.17,3.17,0,0,1,1.34.05h0a1.41,1.41,0,0,1,.31.1l.18.1.24,0a2.87,2.87,0,0,1,.75.1l0,0h0l.06,0a2.38,2.38,0,0,1,1.26.83A.85.85,0,0,1,65.84,61l-1.61.69-.38.16-.13.06h0a3.19,3.19,0,0,1-.37.13h0a3,3,0,0,1-1.95-.1l-.08,0a.68.68,0,0,1-.41-.53h0v-.5h0v-.14l0-1.43h0a.51.51,0,0,1,.09-.25l-2.47,1.27-1.33.67-.07,0,1.66.83Z"/><path class="cls-1" d="M56.93,61.06h0v1.69h0v5.89h0v.1l0,0,.07,0,.17,0h0a2.86,2.86,0,0,1,1.42.2c.32.15.48.35.49.56v0a.7.7,0,0,1,0,.14h0l0,.07h0v0a1,1,0,0,1-.38.32,2.89,2.89,0,0,1-1.18.26l-.31,0a1,1,0,0,1-.24,0h0a2.38,2.38,0,0,1-.57-.17c-.33-.16-.49-.37-.49-.59h0l0,1.61v.47h0c0,.21.17.42.49.58a2.74,2.74,0,0,0,.53.16h0a3,3,0,0,0,1.77-.21h0a.74.74,0,0,0,.47-.6h0l0-1.72v0h0v0l2.15,1.06,0,0,1.47.73v-.1h0V65.68h0V63.83h0L60.52,62.7l-1.67-.83-.05,0h0l-.06,0L57.07,61h0l-.14.08h0Z"/><path class="cls-18" d="M64.15,59.18h0v0l0,2h0a.42.42,0,0,1-.1.3,1,1,0,0,1-.24.22l-.13.08.13-.06.38-.16L65.84,61a.85.85,0,0,0,.36-1.28,2.38,2.38,0,0,0-1.26-.83l-.06,0h0l0,0a2.87,2.87,0,0,0-.75-.1l-.24,0A.62.62,0,0,1,64.15,59.18Z"/><path class="cls-1" d="M64.09,61.57a.42.42,0,0,0,.1-.3h0l0-2v0h0a.43.43,0,0,1,0,.05c0,.2-.17.4-.47.56a1.6,1.6,0,0,1-.33.11h0a3.13,3.13,0,0,1-.81.14h-.11a2.54,2.54,0,0,1-1.06-.21c-.33-.16-.5-.37-.5-.59h0l0,1.43v.14h0v.5h0a.68.68,0,0,0,.41.53l.08,0a3,3,0,0,0,1.95.1h0a3.19,3.19,0,0,0,.37-.13h0l.13-.08A1,1,0,0,0,64.09,61.57Z"/><polygon class="cls-19" points="71.83 57.65 71.86 57.63 69.71 56.58 69.71 56.59 71.83 57.65"/><path class="cls-18" d="M69.74,58.35h0c0,.21-.15.42-.47.59l2.58-1.29-2.12-1Z"/><path class="cls-1" d="M69.62,56.5v0h0a0,0,0,0,0,0,0,.94.94,0,0,1-.38.31,2.51,2.51,0,0,1-.67.21h-.15a3.74,3.74,0,0,1-.67,0l-.24,0a2.28,2.28,0,0,1-.61-.18c-.33-.15-.49-.37-.49-.58h0l0,1.75h0v.32h0c0,.21.16.42.49.57a2.38,2.38,0,0,0,.57.18,3,3,0,0,0,1.77-.22h0c.32-.17.48-.38.47-.59h0l0-1.75v-.14h0v-.18h0a.33.33,0,0,1-.05.21Z"/><polygon class="cls-10" points="67.48 47.78 67.48 47.77 67.48 47.78 67.48 47.78"/><path class="cls-2" d="M61.61,44.85l-.26.14a1.9,1.9,0,0,1,.36-.09Z"/><path class="cls-1" d="M51.06,58.13l0,0h0l.06,0,.17,0h0a3,3,0,0,1,1.32.16l.1,0c.32.16.49.36.49.57a.29.29,0,0,1,0,.18h0l0,.07h0v0a1,1,0,0,1-.38.31l-.12,0a2.93,2.93,0,0,1-1.36.19l-.21,0H51a2.29,2.29,0,0,1-.37-.12v2.06a2.29,2.29,0,0,0,.37.12h.08l.24,0a2.93,2.93,0,0,0,1.33-.18,1,1,0,0,0,.16-.06l.09-.05c.25-.16.39-.35.38-.54h0l0-1.73v0h0v0l1.85.91.31.15h0l1.34.67.14.07h0v-.1h0v0h0V56.3h0V54.91h0V53.19h0l-.19-.1-.94-.47-.19-.09-.4-.2-2.5-1.25L51.1,50.3h0v7.44h0v0h0l-.08,0V58h0v.13h0Z"/><path class="cls-18" d="M59,48.18a2.74,2.74,0,0,0-.74-.1l-.25,0a.65.65,0,0,1,.32.46h0v.59h0v1.48h0a.65.65,0,0,1-.35.51.57.57,0,0,1-.13.08h0l.17-.07.47-.2L60,50.33a.88.88,0,0,0,.26-.19h0a.84.84,0,0,0,.11-1.08A2.44,2.44,0,0,0,59,48.18Z"/><path class="cls-1" d="M58.33,50.64h0V49.16h0v-.59h0A.58.58,0,0,1,58,49h0a1.18,1.18,0,0,1-.22.14,2.26,2.26,0,0,1-.75.22,3.37,3.37,0,0,1-.71,0,2.42,2.42,0,0,1-.88-.19h0c-.33-.16-.49-.37-.49-.59h0l0,2.08h0a.5.5,0,0,0,.1.27,1,1,0,0,0,.4.31,2.2,2.2,0,0,0,.41.12,2.85,2.85,0,0,0,1.92-.17.57.57,0,0,0,.13-.08A.65.65,0,0,0,58.33,50.64Z"/><path class="cls-20" d="M66,47l0,0-.88-.43h-.06Z"/><path class="cls-18" d="M63.85,46.3v1.42h0a.55.55,0,0,1,0,.17.71.71,0,0,1-.21.26,1,1,0,0,1-.23.16h0l.3-.15,1.46-.73L66,47l-.9-.45h.06L63.84,46h0Z"/><path class="cls-1" d="M63.73,45.91h0a1,1,0,0,1-.38.33h0l-.15,0a2.35,2.35,0,0,1-.77.18,3.49,3.49,0,0,1-.56,0,2.47,2.47,0,0,1-.85-.2c-.33-.16-.5-.37-.5-.58h0l0,2.08h0c0,.21.17.42.49.57a2.65,2.65,0,0,0,.71.19h0a2.94,2.94,0,0,0,1.55-.22h0a1,1,0,0,0,.23-.16.71.71,0,0,0,.21-.26.55.55,0,0,0,0-.17h0V46h0v-.31h0a.56.56,0,0,1-.08.26Z"/><path class="cls-12" d="M75.12,69.62a2.93,2.93,0,0,1-1.77.21h0a2,2,0,0,1-.57-.17c-.33-.16-.49-.37-.5-.58h0l0-2.08h0a.38.38,0,0,1,0-.17.59.59,0,0,1,.16-.21l-5,2.54-4.72,2.41.14.06,1.83.92,3.89,1.94h0l2.8-1.43,1.93-1h0l5.86-3h0l-1.52-.75-2.57,1.29Zm-3.41,2-1.7.73-.42.18h0a2.93,2.93,0,0,1-2.34,0c-.32-.15-.49-.36-.49-.57h0v-.48l0-1.6h0a.49.49,0,0,1,.13-.32,1.21,1.21,0,0,1,.34-.26,2.49,2.49,0,0,1,.29-.11,2.14,2.14,0,0,1,.27-.09,3,3,0,0,1,1.78.15l.18.11.24,0a2.74,2.74,0,0,1,.74.1,2.44,2.44,0,0,1,1.38.87A.84.84,0,0,1,71.71,71.63Z"/><path class="cls-12" d="M73.08,66.29l.27-.07h.1l-.1,0h0Z"/><polygon class="cls-12" points="62.75 71.57 62.75 71.57 62.75 71.57 62.75 71.57"/><polygon class="cls-14" points="68.62 74.5 68.62 74.5 68.62 74.49 64.73 72.55 62.9 71.63 62.77 71.57 62.76 71.57 62.76 71.56 62.75 71.56 62.75 71.57 62.75 71.57 62.75 71.57 62.75 71.57 62.75 71.67 62.79 71.69 62.79 71.69 62.8 71.69 62.8 71.69 62.8 73.54 62.8 79.43 62.8 79.47 68.62 82.38 68.62 76.45 68.62 74.5"/><path class="cls-13" d="M70.69,69.49a2.74,2.74,0,0,0-.74-.1l-.24,0a.59.59,0,0,1,.31.46h0l0,2.08h0a.53.53,0,0,1-.16.36,1.31,1.31,0,0,1-.31.23l.42-.18,1.7-.73a.84.84,0,0,0,.36-1.27A2.44,2.44,0,0,0,70.69,69.49Z"/><path class="cls-14" d="M70.06,72h0l0-2.08h0c0,.21-.14.43-.47.6a2.93,2.93,0,0,1-2.07.13,2.14,2.14,0,0,1-.27-.09h0c-.33-.15-.49-.37-.49-.58h0l0,1.6V72h0c0,.21.17.42.49.57a2.93,2.93,0,0,0,2.34,0h0a1.31,1.31,0,0,0,.31-.23A.53.53,0,0,0,70.06,72Z"/><polygon class="cls-21" points="77.69 68.33 77.73 68.31 75.58 67.25 75.58 67.27 77.69 68.33"/><path class="cls-13" d="M75.61,69h0c0,.22-.16.43-.47.6l2.57-1.29-2.11-1.06Z"/><path class="cls-14" d="M75.47,67.22a1.1,1.1,0,0,1-.39.33,2.78,2.78,0,0,1-1.49.23h-.24a2.72,2.72,0,0,1-.61-.18c-.33-.16-.49-.37-.49-.59h0l0,2.08h0c0,.21.17.42.5.58a2,2,0,0,0,.57.17h0a2.93,2.93,0,0,0,1.77-.21h0c.31-.17.47-.38.47-.6h0l0-1.75v-.33h0a.5.5,0,0,1-.08.26Z"/><path class="cls-16" d="M67.21,70.51h0a2.14,2.14,0,0,0,.27.09,2.93,2.93,0,0,0,2.07-.13c.33-.17.48-.39.47-.6a.59.59,0,0,0-.31-.46l-.18-.11a3,3,0,0,0-1.78-.15,2.14,2.14,0,0,0-.27.09,2.49,2.49,0,0,0-.29.11,1.21,1.21,0,0,0-.34.26.49.49,0,0,0-.13.32C66.72,70.14,66.88,70.36,67.21,70.51Z"/><path class="cls-16" d="M73.35,66.22l-.27.07h0a1.51,1.51,0,0,0-.32.11,1.46,1.46,0,0,0-.26.18h0a.59.59,0,0,0-.16.21.38.38,0,0,0,0,.17c0,.22.16.43.49.59a2.72,2.72,0,0,0,.61.18h.24a2.78,2.78,0,0,0,1.49-.23,1.1,1.1,0,0,0,.39-.33v0a.5.5,0,0,0,.08-.26c0-.2-.17-.41-.49-.56a2.87,2.87,0,0,0-1.61-.17Z"/><path class="cls-3" d="M61.35,59.84a2.54,2.54,0,0,0,1.06.21h.11a3.13,3.13,0,0,0,.81-.14h0a1.6,1.6,0,0,0,.33-.11c.3-.16.46-.36.47-.56a.43.43,0,0,0,0-.05h0a.62.62,0,0,0-.31-.45l-.18-.1a1.41,1.41,0,0,0-.31-.1h0A3.17,3.17,0,0,0,62,58.47a2.13,2.13,0,0,0-.54.16h0l-.06,0-.05,0a.94.94,0,0,0-.39.33.51.51,0,0,0-.09.25C60.85,59.47,61,59.68,61.35,59.84Z"/><path class="cls-3" d="M66.87,56.91a2.28,2.28,0,0,0,.61.18l.24,0a3.74,3.74,0,0,0,.67,0h.15a2.51,2.51,0,0,0,.67-.21.94.94,0,0,0,.38-.31,0,0,0,0,1,0,0h0v-.05a.33.33,0,0,0,.05-.21c0-.21-.17-.41-.49-.57a3,3,0,0,0-1.61-.17h-.17l-.2.07a2.2,2.2,0,0,0-.36.13.93.93,0,0,0-.27.19.6.6,0,0,0-.08.08h0a.76.76,0,0,0-.09.18.5.5,0,0,0,0,.12C66.38,56.54,66.54,56.76,66.87,56.91Z"/><path class="cls-3" d="M55.48,49.21h0a2.42,2.42,0,0,0,.88.19,3.37,3.37,0,0,0,.71,0,2.26,2.26,0,0,0,.75-.22A1.18,1.18,0,0,0,58,49h0a.58.58,0,0,0,.25-.45A.65.65,0,0,0,58,48.1a1,1,0,0,0-.17-.1,2.92,2.92,0,0,0-1.94-.1h0a2,2,0,0,0-.39.14c-.32.16-.47.37-.47.58S55.15,49.05,55.48,49.21Z"/><path class="cls-3" d="M61,46.28a2.47,2.47,0,0,0,.85.2,3.49,3.49,0,0,0,.56,0,2.35,2.35,0,0,0,.77-.18l.15,0h0a1,1,0,0,0,.38-.33h0a.56.56,0,0,0,.08-.26c0-.2-.17-.4-.47-.55l0,0a2.86,2.86,0,0,0-1.61-.17,1.9,1.9,0,0,0-.36.09,1.69,1.69,0,0,0-.36.12,1.06,1.06,0,0,0-.28.2.53.53,0,0,0-.2.39C60.51,45.91,60.68,46.12,61,46.28Z"/><path class="cls-10" d="M51,71.79l.08-.05h0L56,69.22A1.57,1.57,0,0,1,56.3,69a2.2,2.2,0,0,1,.36-.13l.2-.1h0l0,0v-.1h0V62.76h0V61.06l0,0-3.08,1.58-.89.45-1.57.81L51.1,64h0l-.08,0-1.47.76h0l-.06,0-3.15,1.62h0V68h0v6.19h0l3-1.53Z"/><polygon class="cls-10" points="46.34 74.36 46.34 74.36 46.34 74.35 46.34 74.35 46.34 74.36"/><polygon class="cls-10" points="56.92 61.06 56.93 61.06 56.93 61.06 56.92 61.06"/><path class="cls-2" d="M51.1,58.19h.06l-.06,0h0l0,0,0,0h0l-.22.12L51,58.2Z"/><path class="cls-2" d="M49.49,64.86l.06,0h0L51,64.08l.08,0h0l.25-.12,1.57-.81.89-.45,3.08-1.58,0,0h0l0,0h0L56.75,61l-1.34-.67,0,0-.15.07-2.31,1.16-.09,0a1,1,0,0,1-.16.06,2.93,2.93,0,0,1-1.33.18l-.24,0H51a2.29,2.29,0,0,1-.37-.12V63l-.9.44-1.48.73h0l-.06,0-2,1L45,65.79l1.19.6.17.08h0Z"/><polygon class="cls-22" points="55.15 60.14 53.29 59.23 53.29 59.25 55.15 60.17 55.16 60.18 55.17 60.18 55.41 60.3 55.45 60.28 55.15 60.14"/><path class="cls-18" d="M55.16,60.18h0l-1.86-.92h0v0l0,1.73h0c0,.19-.13.38-.38.54l-.09.05.09,0,2.31-1.16.15-.07,0,0-.24-.12Z"/><path class="cls-3" d="M50.65,59v.65a2.29,2.29,0,0,0,.37.12h.08l.21,0a2.93,2.93,0,0,0,1.36-.19l.12,0a1,1,0,0,0,.38-.31v0h0l0-.07h0a.29.29,0,0,0,0-.18c0-.21-.17-.41-.49-.57l-.1,0a3,3,0,0,0-1.32-.16h0l-.17,0H51l-.22.07-.15,0V59Z"/><polygon class="cls-10" points="62.8 73.54 62.8 71.69 62.75 71.72 62.75 71.72 56.93 74.69 56.89 74.72 55.06 75.65 52.2 77.11 52.2 79.1 52.2 84.98 52.2 84.98 52.2 84.99 62.8 79.57 62.8 79.47 62.8 79.43 62.8 73.54"/><polygon class="cls-10" points="62.8 71.69 62.79 71.69 62.8 71.69 62.8 71.69"/><path class="cls-2" d="M61.28,70.94h0L58.7,72.23h0a3,3,0,0,1-1.77.21h0a2.74,2.74,0,0,1-.53-.16c-.32-.16-.49-.37-.49-.58h0v-.47l0-1.61h0a.5.5,0,0,1,0-.12.76.76,0,0,1,.09-.18h0l.08-.08L51.1,71.74h0l-.08.05-1.7.86-3,1.53h0l.13.06,1.57.78L52.2,77.1h0l2.86-1.46,1.83-.93,0,0,5.82-3h0l0,0h0l0,0h0Zm-6,3.3-1.63.7-.49.21h0a3,3,0,0,1-2.34,0c-.32-.15-.49-.36-.49-.57h0V74l0-.8v-.61h0a.48.48,0,0,1,.09-.25,1,1,0,0,1,.39-.34l.24-.08.08,0h0a1.89,1.89,0,0,1,.34-.09,2.9,2.9,0,0,1,1.67.16.78.78,0,0,1,.18.11l.24,0a2.46,2.46,0,0,1,.6.07l.15,0a2.36,2.36,0,0,1,1.37.88A.84.84,0,0,1,55.29,74.24Z"/><path class="cls-2" d="M56.88,68.83H57l-.07,0,0,0,0,0h0l-.2.1a1.52,1.52,0,0,1,.2-.06Z"/><path class="cls-1" d="M52.2,79.1v-2h0L48.09,75l-1.57-.78-.13-.06h0V68h0V66.48h0l-.17-.08L45,65.79h0l-.07,0h0l-2-1-2.41-1.21v7.25h0v.41h0v7.87l5.87,2.94h0v0l0,0L52.2,85h0Zm-5.86-4.74Z"/><path class="cls-18" d="M54.28,72.09l-.15,0a2.46,2.46,0,0,0-.6-.07l-.24,0a.67.67,0,0,1,.29.32l0,.14h0l0,2.08h0a.43.43,0,0,1-.12.32,1,1,0,0,1-.35.27l.49-.21,1.63-.7A.84.84,0,0,0,55.65,73,2.36,2.36,0,0,0,54.28,72.09Z"/><path class="cls-1" d="M53.64,74.56h0l0-2.08h0c0,.21-.15.43-.48.6a2.74,2.74,0,0,1-1.53.23,2.61,2.61,0,0,1-.5-.09h0l-.08,0a1.42,1.42,0,0,1-.22-.07h0c-.33-.16-.5-.37-.5-.58h0v.61l0,.8v.67h0c0,.21.17.42.49.57a3,3,0,0,0,2.34,0h0a1,1,0,0,0,.35-.27A.43.43,0,0,0,53.64,74.56Z"/><path class="cls-3" d="M50.8,73.12h0a1.42,1.42,0,0,0,.22.07l.08,0h0a2.61,2.61,0,0,0,.5.09,2.74,2.74,0,0,0,1.53-.23c.33-.17.48-.39.48-.6l0-.14a.67.67,0,0,0-.29-.32.78.78,0,0,0-.18-.11,2.9,2.9,0,0,0-1.67-.16,1.89,1.89,0,0,0-.34.09h0l-.08,0-.24.08a1,1,0,0,0-.39.34.48.48,0,0,0-.09.25C50.3,72.75,50.47,73,50.8,73.12Z"/><polygon class="cls-22" points="59.16 69.86 59.16 69.88 60.19 70.39 61.28 70.94 61.31 70.92 59.16 69.86"/><path class="cls-18" d="M59.16,69.88h0v0l0,1.72h0a.74.74,0,0,1-.47.6L61.25,71h0l-1.09-.55Z"/><path class="cls-3" d="M56.32,70.2a2.38,2.38,0,0,0,.57.17h0a1,1,0,0,0,.24,0l.31,0a2.89,2.89,0,0,0,1.18-.26,1,1,0,0,0,.38-.32v0h0l0-.07h0a.7.7,0,0,0,0-.14v0c0-.21-.17-.41-.49-.56a2.86,2.86,0,0,0-1.42-.2h0l-.17,0h-.17a1.52,1.52,0,0,0-.2.06,2.2,2.2,0,0,0-.36.13,1.57,1.57,0,0,0-.27.19L56,69.3h0a.76.76,0,0,0-.09.18.5.5,0,0,0,0,.12C55.83,69.83,56,70,56.32,70.2Z"/><polygon class="cls-1" points="28.2 50.46 28.2 50.46 28.2 50.46 28.2 50.46"/><path class="cls-2" d="M48.29,48.44l-3.5-1.79-.06,0-4.29,2.11h0l-1.36.66h0l-4.32-2.18,0,0h0l-.74.36h0l.05,0,.1.06.24,0a2.87,2.87,0,0,1,.75.1,2.44,2.44,0,0,1,1.38.88.85.85,0,0,1-.36,1.28L36,50l-.67.29-1.05.45-.24.1h0a3,3,0,0,1-1.66.22H32.2a2,2,0,0,1-.56-.17c-.33-.16-.49-.37-.5-.58h0l0-1.24v0h0l-1.33.65h0l-1.55.77h0l.05,0,.16.08,1.36.7,2.46,1.25,2.17,1.11,1.64.84h0l0,0,1,.49,1.81.92h0l1.56-.77h0l2.75-1.35.06,0h0l1.6-.79L46.73,52l4.1-2L51,49.9l.05,0L49.3,49ZM42.34,53l-.26.12h0l-.06,0-1.57.68h0l0,0-.19.08a3,3,0,0,1-2.36,0,1.13,1.13,0,0,1-.29-.2l0,0h0a.53.53,0,0,1-.14-.33h0v-.71l0-1.38h0a.6.6,0,0,1,.27-.46l.21-.13a3,3,0,0,1,2.35,0l.18.1h.24a2.76,2.76,0,0,1,.75.1,2.85,2.85,0,0,1,1,.51,2.58,2.58,0,0,1,.37.37A.86.86,0,0,1,42.34,53Zm4.37-2.49-.94.47h0a3,3,0,0,1-2.35,0l-.07,0-.12-.07a.62.62,0,0,1-.31-.47h0l0-2.1h0a.73.73,0,0,1,.48-.58,2.91,2.91,0,0,1,2.35,0c.32.15.49.36.5.57h0v.32l.86.41,1.31.65Z"/><path class="cls-4" d="M42.34,51.37a2.85,2.85,0,0,0-1-.51,2.76,2.76,0,0,0-.75-.1h-.24a.52.52,0,0,1,.11.1h0a.5.5,0,0,1,.2.37h0v1.18h0v.91h0a.55.55,0,0,1-.24.44h0l0,0-.19.12.19-.08,0,0h0L42,53.16l.06,0h0l.26-.12a.86.86,0,0,0,.37-1.28A2.58,2.58,0,0,0,42.34,51.37Z"/><path class="cls-1" d="M40.44,53.78h0a.55.55,0,0,0,.24-.44h0v-.91h0V51.25h0a.52.52,0,0,1-.2.41h0a1.18,1.18,0,0,1-.27.2,3.19,3.19,0,0,1-.37.13,3,3,0,0,1-2-.09c-.34-.16-.5-.38-.5-.59h0l0,1.38v.71h0a.53.53,0,0,0,.14.33h0l0,0a1.13,1.13,0,0,0,.29.2,3,3,0,0,0,2.36,0l.19-.12Z"/><path class="cls-3" d="M37.82,51.9a3,3,0,0,0,2,.09,3.19,3.19,0,0,0,.37-.13,1.18,1.18,0,0,0,.27-.2h0a.52.52,0,0,0,.2-.41.5.5,0,0,0-.2-.37h0a.52.52,0,0,0-.11-.1l-.18-.1a3,3,0,0,0-2.35,0l-.21.13a.6.6,0,0,0-.27.46C37.32,51.52,37.48,51.74,37.82,51.9Z"/><path class="cls-4" d="M46.23,48.62l0,.83v.95h0a.51.51,0,0,1-.07.23.94.94,0,0,1-.41.37h0l.94-.47,1.69-.85L47.09,49Z"/><path class="cls-1" d="M46.18,50.63a.51.51,0,0,0,.07-.23h0v-.95l0-.83V48.3h0a.49.49,0,0,1-.08.25.94.94,0,0,1-.4.35,2.9,2.9,0,0,1-1.49.24,2.53,2.53,0,0,1-.86-.2c-.33-.16-.5-.37-.5-.59h0l0,2.1h0a.62.62,0,0,0,.31.47l.12.07.07,0a3,3,0,0,0,2.35,0A.94.94,0,0,0,46.18,50.63Z"/><path class="cls-3" d="M43.38,49a2.53,2.53,0,0,0,.86.2,2.9,2.9,0,0,0,1.49-.24.94.94,0,0,0,.4-.35.49.49,0,0,0,.08-.25c0-.21-.18-.42-.5-.57a2.91,2.91,0,0,0-2.35,0,.73.73,0,0,0-.48.58C42.88,48.58,43.05,48.79,43.38,49Z"/><path class="cls-4" d="M34.43,48.17h0l0,1.09,0,.73v.27h0a.64.64,0,0,1-.32.5l-.16.1.24-.1,1.05-.45L36,50l.18-.08a.85.85,0,0,0,.36-1.28,2.44,2.44,0,0,0-1.38-.88,2.87,2.87,0,0,0-.75-.1l-.24,0A.57.57,0,0,1,34.43,48.17Z"/><path class="cls-1" d="M34.47,50.26h0V50l0-.73,0-1.09h0c0,.21-.15.43-.47.6l-.26.1a3,3,0,0,1-2.07,0h0l0,0h0c-.31-.15-.46-.36-.46-.56h0V49h0v0l0,1.24h0c0,.21.17.42.5.58a2,2,0,0,0,.56.17h.13A3,3,0,0,0,34,50.86h0l.16-.1A.64.64,0,0,0,34.47,50.26Z"/><path class="cls-3" d="M33.94,47.6a3,3,0,0,0-2.36,0l-.12.08a.65.65,0,0,0-.35.51c0,.2.15.41.46.56h0l0,0h0a3,3,0,0,0,2.07,0l.26-.1c.32-.17.48-.39.47-.6a.57.57,0,0,0-.31-.46l-.1-.06-.05,0h0Z"/><polygon class="cls-1" points="16.46 79.89 16.45 79.89 16.46 79.89 16.46 79.89 16.46 79.89"/><polygon class="cls-14" points="10.59 76.89 10.59 74.94 5.87 72.53 0 69.53 0 77.41 10.59 82.82 10.59 82.82 10.59 82.82 10.59 76.89"/><polygon class="cls-14" points="0 69.52 0 69.53 0.01 69.53 0 69.52"/><path class="cls-12" d="M5.87,66.6l-.1.05h.1Z"/><path class="cls-12" d="M10.59,74.94h0L14.48,73l1.84-.92-4-2a.53.53,0,0,1,.12.32h0l0,1.6v.48h0c0,.21-.17.42-.5.57a2.87,2.87,0,0,1-2.33,0l-2.12-.91a.85.85,0,0,1-.37-1.27,2.44,2.44,0,0,1,1.38-.87,2.74,2.74,0,0,1,.74-.1l.25,0,.17-.11a3.07,3.07,0,0,1,1.79-.15L6.93,67.27a.59.59,0,0,1,0,.17H7l0,2.08h0c0,.22-.17.42-.49.58a2.1,2.1,0,0,1-.57.17,2.91,2.91,0,0,1-1.77-.21h0L1.52,68.77,0,69.52H0l5.87,3Z"/><polygon class="cls-11" points="16.46 74 16.46 72.15 16.33 72.08 16.32 72.07 14.48 72.99 10.59 74.94 10.59 74.94 10.59 74.94 10.59 76.89 10.59 82.82 10.59 82.82 16.45 79.89 16.46 79.89 16.46 74"/><path class="cls-13" d="M9.15,72.39h0l0-2.08h0a.62.62,0,0,1,.32-.46l-.25,0a2.74,2.74,0,0,0-.74.1,2.44,2.44,0,0,0-1.38.87.85.85,0,0,0,.37,1.27L9.63,73C9.31,72.82,9.15,72.6,9.15,72.39Z"/><path class="cls-14" d="M12,71h0a2.14,2.14,0,0,1-.27.09,2.94,2.94,0,0,1-2.07-.13c-.32-.17-.48-.38-.47-.6h0l0,2.08h0c0,.21.16.43.48.59A2.87,2.87,0,0,0,12,73c.33-.15.49-.36.5-.57h0V72l0-1.6h0C12.49,70.58,12.33,70.8,12,71Z"/><polygon class="cls-15" points="3.64 67.69 1.48 68.75 1.52 68.77 3.64 67.71 3.64 67.69"/><path class="cls-13" d="M3.63,69.46h0l0-1.75L1.52,68.77,4.1,70.06C3.78,69.89,3.62,69.68,3.63,69.46Z"/><path class="cls-14" d="M3.61,69.46h0c0,.22.15.43.47.6h0a2.91,2.91,0,0,0,1.77.21,2.1,2.1,0,0,0,.57-.17c.32-.16.49-.36.49-.58H7l0-2.08H7c0,.22-.17.43-.5.59a2.49,2.49,0,0,1-.6.18l-.25,0A2.86,2.86,0,0,1,4.14,68a.94.94,0,0,1-.39-.33h0v0a.49.49,0,0,1-.08-.25h0v.32Z"/><path class="cls-1" d="M5.87,66.66l.27.08h0a1.51,1.51,0,0,1,.32.11,1.17,1.17,0,0,1,.27.19h0a.73.73,0,0,1,.16.21l4.54,2.32a1.39,1.39,0,0,1,.26.1,1.24,1.24,0,0,1,.29.1,1.27,1.27,0,0,1,.35.26l4,2h0l.13.07h0v-.08h0v0h0V66.12h0V64.27l-1.09-.56-1.8-.92-1.84-.94L6.86,59.36l-1-.51h0v7.81Z"/><path class="cls-2" d="M11.73,56v0h0v0h0l-.07,0h.07Z"/><path class="cls-2" d="M6.86,59.36l4.87,2.49,1.84.94,1.8.92,1.09.56h0l1.07-.53h0l1.16-.59,1.71-.85.06,0h0l1.65-.82h0l-1.68-.86L19.28,60l-.05,0h0l-.94-.49a.52.52,0,0,1,.08.25h0v.65h0v.83h0v.58h0a.68.68,0,0,1-.42.53l-.08.05a2.63,2.63,0,0,1-.3.09h0a3,3,0,0,1-2-.13h0l-.12-.06L15,62.09l-1.61-.69A.86.86,0,0,1,13,60.13a2.39,2.39,0,0,1,1.38-.88h.13a2.55,2.55,0,0,1,.61-.08l.24,0,.18-.1a3.05,3.05,0,0,1,1.67-.16L16,58.3l-3.22-1.65a.5.5,0,0,1,0,.12h0l0,1.59h0v.49h0c0,.21-.17.42-.5.57a2.24,2.24,0,0,1-.57.18A3,3,0,0,1,10,59.38h0L7.39,58.09l-.53.26-1,.5h0Z"/><path class="cls-10" d="M16.46,72.06,18,71.3l0,0,2.16-1.06v0h0v-.27h0c0-.21.17-.41.49-.56a2.86,2.86,0,0,1,1.5-.19h.12l.08,0h0v0h0V63.22h0v-1.7l-.17-.09h0l-1.65.82h0l-.06,0-1.71.85-1.16.59h0l-1.07.53h0v1.85h0V72h0v0Z"/><path class="cls-18" d="M15.13,62a.48.48,0,0,1-.11-.3h0l0-2.08h0s0,0,0-.07a.09.09,0,0,0,0,0h0a.78.78,0,0,1,.29-.35l-.24,0a2.55,2.55,0,0,0-.61.08h-.13a2.39,2.39,0,0,0-1.38.88.86.86,0,0,0,.36,1.27l1.61.69.39.16.12.06-.12-.08A.86.86,0,0,1,15.13,62Z"/><path class="cls-1" d="M17.87,60.28h0a1.69,1.69,0,0,1-.34.1h0a3.44,3.44,0,0,1-.56.09h-.1a2.87,2.87,0,0,1-1.34-.25c-.32-.17-.48-.39-.47-.6h0l0,2.08h0a.48.48,0,0,0,.11.3.86.86,0,0,0,.24.22l.12.08h0a3,3,0,0,0,2,.13h0a2.63,2.63,0,0,0,.3-.09l.08-.05a.68.68,0,0,0,.42-.53h0v-.58h0v-.83h0v-.65h0C18.36,59.91,18.2,60.12,17.87,60.28Z"/><polygon class="cls-22" points="9.51 57.02 7.35 58.07 7.39 58.09 9.51 57.04 9.51 57.02"/><path class="cls-18" d="M9.49,58.79h0L9.5,57h0L7.39,58.09,10,59.38C9.65,59.22,9.49,59,9.49,58.79Z"/><polygon class="cls-14" points="11.73 48.22 11.73 48.22 11.74 48.22 11.73 48.22"/><path class="cls-14" d="M22.16,61.43l.17.09v-.14h0v0h0v-.08h0V58.4h0V56h0v-.63h0V53.63l-.17-.08-.61-.31h0l-1.07-.55-1.23-.63h0L19.09,52l-1.56-.8h0L17,50.92l-.6-.31L16,50.42l-.3-.16,0,0-4-2v1.71h0v6h0v0h.07l.2.07a1.69,1.69,0,0,1,.36.13,1.24,1.24,0,0,1,.28.19l.07.08h0a.51.51,0,0,1,.09.18L16,58.3l1.19.61a1.55,1.55,0,0,1,.31.07h0l.2.08.16,0a1,1,0,0,1,.39.33l.94.49h0l.05,0,1.18.6,1.68.86h0Z"/><path class="cls-12" d="M17.87,45.43l-.27-.14-.07,0h0A1.89,1.89,0,0,1,17.87,45.43Z"/><path class="cls-12" d="M15.73,50.26l.3.16.39.19.6.31.48.25h0l1.56.8.13.07h0l1.23.63,1.07.55h0l.61.31.17.08h0l.24-.13.63-.31.54-.27.65-.32.6-.31,3.19-1.59L28,50.6l-1.6-.82-1.25-.64h0l-1.78-.91-1.78-.91L18.5,45.75a.53.53,0,0,1,.2.39h0l0,1.48v.6h0a0,0,0,0,0,0,0,.75.75,0,0,1-.49.55,2.16,2.16,0,0,1-.64.18,3.65,3.65,0,0,1-.66,0,2.76,2.76,0,0,1-.89-.2l-.15,0h0l-2.57-1.29L13,47.6l-.88.43-.37.19h0l4,2Zm3.07-.58a1.54,1.54,0,0,1,.08-.19l.13-.15a2,2,0,0,1,.34-.3A2.95,2.95,0,0,1,21,48.52l.24,0,.18-.1a2.93,2.93,0,0,1,2.34,0c.31.16.47.37.47.58h0v.52h0l0,1.55h0a.62.62,0,0,1-.38.51l0,0-.07,0a2.93,2.93,0,0,1-2.34,0h0l-.73-.31h0l-.19-.08-1.19-.51-.08-.06-.1-.07a.86.86,0,0,1-.18-.2.79.79,0,0,1-.13-.35A.83.83,0,0,1,18.8,49.68Z"/><path class="cls-11" d="M24.39,52.6l-.65.32-.54.27-.63.31-.24.13h0v1.71h0V56h0V58.4h0v2.85h0l1.49-.75h0l0,0h0L26,59.41V59.1h0c0-.21.17-.41.49-.57a2.41,2.41,0,0,1,.69-.18,3.14,3.14,0,0,1,.81,0h.12l.05,0h0V55.56h0v0h0V50.69h0L25,52.29Z"/><path class="cls-13" d="M19.06,50.64l.1.07.08.06,1.19.51.19.08h0l.73.31a.87.87,0,0,1-.45-.44h0a.68.68,0,0,1,0-.14h0v-1l0-1.09h0a.6.6,0,0,1,.31-.46l-.24,0a2.95,2.95,0,0,0-1.65.52,2,2,0,0,0-.34.3l-.13.15a1.54,1.54,0,0,0-.08.19.83.83,0,0,0-.05.41.79.79,0,0,0,.13.35A.86.86,0,0,0,19.06,50.64Z"/><path class="cls-14" d="M23.73,49.65a2.83,2.83,0,0,1-1,.21,3.71,3.71,0,0,1-.67,0,2.48,2.48,0,0,1-.65-.2c-.33-.17-.48-.39-.47-.61h0l0,1.09v1h0a.68.68,0,0,0,0,.14h0a.87.87,0,0,0,.45.44h0a2.93,2.93,0,0,0,2.34,0l.07,0,0,0a.62.62,0,0,0,.38-.51h0l0-1.55h0v-.52h0C24.23,49.28,24.07,49.49,23.73,49.65Z"/><path class="cls-18" d="M15.37,46.4h0l-.11,0v0Z"/><path class="cls-20" d="M13.26,47.46l1.89-.94.1-.06v0l-2,1Z"/><path class="cls-13" d="M15.36,48.16h0l0-1.76-.12.06-.1.06-1.89.94,2.57,1.29h0C15.51,48.58,15.36,48.37,15.36,48.16Z"/><path class="cls-14" d="M15.34,48.16h0c0,.21.15.42.47.59h0l.15,0a2.76,2.76,0,0,0,.89.2,3.65,3.65,0,0,0,.66,0,2.16,2.16,0,0,0,.64-.18.75.75,0,0,0,.49-.55,0,0,0,0,1,0,0h0v-.6l0-1.48h0c0,.21-.16.42-.49.58a2.06,2.06,0,0,1-.68.18l-.17,0a2.88,2.88,0,0,1-1.49-.24,1,1,0,0,1-.39-.33h0a.46.46,0,0,1-.08-.26h0v.31h0Z"/><path class="cls-16" d="M11.73,69.69a1.39,1.39,0,0,0-.26-.1,3.07,3.07,0,0,0-1.79.15l-.17.11a.62.62,0,0,0-.32.46c0,.22.15.43.47.6a2.94,2.94,0,0,0,2.07.13A2.14,2.14,0,0,0,12,71h0c.33-.15.49-.37.49-.58a.53.53,0,0,0-.12-.32,1.27,1.27,0,0,0-.35-.26A1.24,1.24,0,0,0,11.73,69.69Z"/><path class="cls-16" d="M3.75,67.66h0a.94.94,0,0,0,.39.33,2.86,2.86,0,0,0,1.48.24l.25,0a2.49,2.49,0,0,0,.6-.18c.33-.16.5-.37.5-.59a.59.59,0,0,0,0-.17.73.73,0,0,0-.16-.21h0a1.17,1.17,0,0,0-.27-.19,1.51,1.51,0,0,0-.32-.11h0l-.27-.08h-.1a2.86,2.86,0,0,0-1.61.17c-.32.15-.49.36-.5.57a.49.49,0,0,0,.08.25Z"/><path class="cls-3" d="M17.89,59.11l-.16,0-.2-.08h0a1.55,1.55,0,0,0-.31-.07,3.05,3.05,0,0,0-1.67.16l-.18.1a.78.78,0,0,0-.29.35h0a.09.09,0,0,1,0,0s0,0,0,.07c0,.21.15.43.47.6a2.87,2.87,0,0,0,1.34.25H17a3.44,3.44,0,0,0,.56-.09h0a1.69,1.69,0,0,0,.34-.1h0c.33-.16.49-.37.49-.59a.52.52,0,0,0-.08-.25A1,1,0,0,0,17.89,59.11Z"/><path class="cls-3" d="M12.71,56.46l-.07-.08a1.24,1.24,0,0,0-.28-.19,1.69,1.69,0,0,0-.36-.13L11.8,56h-.21a3,3,0,0,0-.6,0,2.7,2.7,0,0,0-1,.2c-.3.15-.46.34-.48.54h0v.06a.46.46,0,0,0,.08.23h0a1,1,0,0,0,.38.33,2.58,2.58,0,0,0,1.17.26h.1l.22,0,.24,0a2.28,2.28,0,0,0,.61-.18c.33-.15.49-.37.49-.58a.54.54,0,0,0-.11-.3Z"/><path class="cls-16" d="M20.93,49c0,.22.14.44.47.61a2.48,2.48,0,0,0,.65.2,3.71,3.71,0,0,0,.67,0,2.83,2.83,0,0,0,1-.21c.34-.16.5-.37.5-.59s-.16-.42-.47-.58a2.93,2.93,0,0,0-2.34,0l-.18.1A.6.6,0,0,0,20.93,49Z"/><path class="cls-16" d="M15.48,46.35a1,1,0,0,0,.39.33,2.88,2.88,0,0,0,1.49.24l.17,0a2.06,2.06,0,0,0,.68-.18c.33-.16.49-.37.49-.58a.53.53,0,0,0-.2-.39,1.18,1.18,0,0,0-.27-.2c-.11,0-.24-.08-.36-.12a1.89,1.89,0,0,0-.34-.09h0a2.87,2.87,0,0,0-1.61.17c-.32.16-.48.36-.49.57a.46.46,0,0,0,.08.26Z"/><polygon class="cls-1" points="32.96 82.47 32.91 82.5 32.96 82.53 32.96 82.52 32.96 82.52 32.96 82.47"/><polygon class="cls-14" points="27.09 79.53 27.09 77.5 24.24 76.04 22.33 75.06 22.33 75.06 16.54 72.1 16.46 72.06 16.46 72.06 16.46 72.14 16.46 72.15 16.46 74 16.46 79.89 16.46 79.89 16.46 79.89 16.46 79.97 27.09 85.41 27.09 85.41 27.09 85.41 27.09 79.53"/><polygon class="cls-14" points="16.46 72.06 16.46 72.06 16.46 72.06 16.46 72.06 16.46 72.06 16.46 72.06"/><path class="cls-12" d="M22.33,69.18h.05l0,0h0v0l-.08,0Z"/><path class="cls-12" d="M28.6,72.37l.11.07h0a.6.6,0,0,1,.27.46h0v.83l0,.81V75h0c0,.21-.17.42-.5.57a2.91,2.91,0,0,1-2.35,0h0l-.46-.2L24,74.62a.85.85,0,0,1-.37-1.28A2.44,2.44,0,0,1,25,72.49l.07,0a2.74,2.74,0,0,1,.74-.1l.24,0a1.08,1.08,0,0,1,.18-.11,3,3,0,0,1,2-.08h0l.17.06h0l.09,0-.27-.14h0l-4.84-2.48s0,0,0,0h0a.43.43,0,0,1,.09.26h0l0,1.75v.34h0c0,.21-.17.42-.5.58a2.13,2.13,0,0,1-.59.17h0a3,3,0,0,1-1.75-.21l-2.52-1.26-.07,0-1.53.76h0l.08,0,5.79,3h0l1.91,1,2.85,1.46h0L31,75.56l1.95-1h0l-2.75-1.41Z"/><polygon class="cls-11" points="32.96 82.47 32.96 79.59 32.96 79.59 32.96 79.57 32.96 79.56 32.96 79.55 32.96 74.6 32.93 74.59 32.92 74.58 32.91 74.59 32.91 74.59 30.96 75.56 27.09 77.49 27.09 77.5 27.09 77.5 27.09 79.53 27.09 85.41 27.09 85.41 32.91 82.5 32.96 82.47 32.96 82.47"/><path class="cls-13" d="M25.65,74.94h0l0-2.08h0a.61.61,0,0,1,.31-.46l-.24,0a2.74,2.74,0,0,0-.74.1l-.07,0a2.44,2.44,0,0,0-1.32.85A.85.85,0,0,0,24,74.62l1.66.71.46.2a1.21,1.21,0,0,1-.34-.26A.51.51,0,0,1,25.65,74.94Z"/><path class="cls-14" d="M28.51,73.5a2.8,2.8,0,0,1-.31.09h0a3.21,3.21,0,0,1-.84.12,3,3,0,0,1-1.19-.26c-.32-.17-.47-.38-.47-.59v0h0l0,2.08h0a.51.51,0,0,0,.13.33,1.21,1.21,0,0,0,.34.26h0a2.91,2.91,0,0,0,2.35,0c.33-.15.49-.36.5-.57h0v-.45l0-.81v-.83h0C29,73.12,28.84,73.34,28.51,73.5Z"/><path class="cls-16" d="M28.37,72.27l-.17-.06h0a3,3,0,0,0-2,.08,1.08,1.08,0,0,0-.18.11.61.61,0,0,0-.31.46v0c0,.21.15.42.47.59a3,3,0,0,0,1.19.26,3.21,3.21,0,0,0,.84-.12h0a2.8,2.8,0,0,0,.31-.09c.33-.16.49-.38.49-.59a.6.6,0,0,0-.27-.46h0l-.11-.07-.13-.07-.09,0Z"/><polygon class="cls-19" points="20.11 70.24 20.11 70.22 17.95 71.28 17.99 71.3 19.28 70.65 20.11 70.24"/><path class="cls-13" d="M20.1,72h0l0-1.68v-.08l-.83.41L18,71.3l.07,0,2.52,1.26C20.25,72.43,20.1,72.21,20.1,72Z"/><path class="cls-14" d="M23,70.56a2.43,2.43,0,0,1-.63.18h0l-.22,0h-.55a2.55,2.55,0,0,1-.95-.24,1.13,1.13,0,0,1-.35-.28s0,0,0-.06h0l0,0h0l0-.1a.51.51,0,0,1,0-.13h0v.27h0v.13l0,1.68h0c0,.21.15.43.48.6a3,3,0,0,0,1.75.21h0a2.13,2.13,0,0,0,.59-.17c.33-.16.49-.37.5-.58h0v-.34l0-1.75h0C23.45,70.19,23.29,70.4,23,70.56Z"/><path class="cls-16" d="M22.34,69.18h-.21a2.86,2.86,0,0,0-1.5.19c-.32.15-.48.35-.49.56a.51.51,0,0,0,0,.13l0,.1h0l0,0h0s0,0,0,.06a1.13,1.13,0,0,0,.35.28,2.55,2.55,0,0,0,.95.24h.55l.22,0h0a2.43,2.43,0,0,0,.63-.18c.33-.16.49-.37.49-.59a.43.43,0,0,0-.09-.26h0s0,0,0,0l-.93-.47,0,0h0Z"/><polygon class="cls-1" points="30.2 65.28 30.15 65.25 30.15 65.25 30.14 65.25 28.64 64.48 28.2 64.25 28.19 64.25 28.19 64.25 27.39 63.84 26.67 63.47 22.58 61.38 22.58 61.38 22.45 61.32 22.45 61.31 22.33 61.25 22.33 61.25 22.33 61.25 22.33 61.25 22.33 61.25 22.33 61.25 22.33 61.25 22.33 61.33 22.33 61.34 22.33 61.34 22.33 61.38 22.33 61.38 22.33 61.41 22.33 61.52 22.33 63.19 22.33 63.22 22.33 63.22 22.33 63.27 22.33 63.72 22.33 64.52 22.33 65.33 22.33 66.33 22.33 67.4 22.33 69.07 22.33 69.08 22.33 69.08 22.33 69.12 22.33 69.12 22.33 69.14 22.33 69.16 22.33 69.16 22.33 69.16 22.35 69.17 22.38 69.19 22.42 69.21 23.35 69.68 28.19 72.16 28.19 72.16 28.2 72.16 28.47 72.3 28.6 72.37 30.17 73.17 32.92 74.58 32.93 74.59 32.96 74.6 32.96 74.59 32.96 74.57 32.96 74.56 32.96 74.55 32.96 72.89 32.96 71.82 32.96 71.79 32.96 70.81 32.96 69.99 32.96 69.77 32.96 69.2 32.96 68.7 32.96 68.67 32.96 68.65 32.96 68.65 32.96 66.86 32.96 66.69 31.12 65.75 30.2 65.28"/><path class="cls-2" d="M36.13,62.36l-.05,0h0l-1.61-.83-2.23-1.14-2.46-1.25-.65-.34.07.07h0l.05.08a.51.51,0,0,1,.07.23h0l0,1.77v.32h0a.54.54,0,0,1-.14.32,1.34,1.34,0,0,1-.36.26,2.13,2.13,0,0,1-.59.17h0a3.12,3.12,0,0,1-1.43-.1l-.12,0a1.52,1.52,0,0,1-.2-.06h0l-2.33-1.16L24,60.55h0l-.12-.06h0l-1.49.75h0l.12.06h0l.13.06h0l4.09,2.09.72.37.8.41h0l.44.23,1.5.77h0l.05,0,.92.47,1.84.94h0l1.53-.76,1.45-.73,2.9-1.45-1.79-.91Zm-1.25.56h0v0l0,1.22h0a.65.65,0,0,1-.36.51l-.13.07a2.91,2.91,0,0,1-2.35,0h0l-.28-.12-.07,0-.06,0h0l0,0-.44-.18L30,63.85l-.1,0a.86.86,0,0,1-.5-.94.73.73,0,0,1,.14-.34,2.44,2.44,0,0,1,.27-.3c.08-.06.15-.13.24-.19a2.94,2.94,0,0,1,.87-.39,2.87,2.87,0,0,1,.75-.1l.24,0a.78.78,0,0,1,.18-.11,2.25,2.25,0,0,1,.62-.18,3.18,3.18,0,0,1,1.41.11,2.24,2.24,0,0,1,.31.11h0a1.34,1.34,0,0,1,.26.19.57.57,0,0,1,.21.4h0Z"/><path class="cls-2" d="M28.19,58.32h0l-.05,0h.17l.17.06h0l-.18-.09-.05,0h0Z"/><path class="cls-10" d="M40.47,71.29h0v-.41h0V63.55h0V63h0V60.2h0V57.43h0l2.39-1.17,0,0h0l1.28-.63V55.5h0a.19.19,0,0,1,0-.07.74.74,0,0,1,.47-.49,2.44,2.44,0,0,1,.5-.16l.07,0h0a3.42,3.42,0,0,1,.72,0l.23-.12.55.28A2,2,0,0,1,47,55a1.53,1.53,0,0,1,.23.15L49,56l.33.17,1.36.68h0v.68h0V58h0v.34l.15,0,.22-.12h0V58h0v-.15l.08,0h0v0h0V50.31h0v-.08l.56-.28.84-.43.17-.09,3.08-1.57h0l1.85-1,1.3-.66,1.8-.92a1.06,1.06,0,0,1,.28-.2,1.69,1.69,0,0,1,.36-.12l.26-.14.1,0a2.86,2.86,0,0,1,1.61.17l0,0V43.85h0V41h0v-.74a2.57,2.57,0,0,1,1,.2l0,0,.54-.27V32.3h0v-7.8h0l-7.78,3.83-2.92,1.43-1.52.76h0l.09.05,3.93,2,2.07,1.06,1.67.85h0l.12.06L63.34,36l-7.85,3.86-2.82,1.39h0L51.1,42h0v7.87h0l-.05,0-.21.11-4.1,2L44.85,53l-1.6.79h0l-.06,0-2.75,1.35h0l-1.56.77h0V61h0v0h0v2.72h0l-2.9,1.45-1.45.73L33,66.68h0v2h0v5.89h0v0h0v5h0v0h0v2.88h0v0h0l5.89-2.93h0l.55-.27,1.06-.52V71.29Z"/><path class="cls-18" d="M31.89,64.66l-.17-.13,0,0h0a.49.49,0,0,1-.16-.36h0v-.69l0-1.4h0a.57.57,0,0,1,.31-.46l-.24,0a2.87,2.87,0,0,0-.75.1A2.94,2.94,0,0,0,30,62c-.09.06-.16.13-.24.19a2.44,2.44,0,0,0-.27.3.73.73,0,0,0-.14.34.86.86,0,0,0,.5.94l.1,0,1.13.49.44.18,0,0h0l.06,0,.07,0,.28.12h0Z"/><path class="cls-1" d="M34.38,62.68h0a2.89,2.89,0,0,1-2.34,0c-.33-.17-.48-.39-.47-.6h0l0,1.4v.69h0a.49.49,0,0,0,.16.36h0l0,0,.17.13.1.06h0a2.91,2.91,0,0,0,2.35,0l.13-.07a.65.65,0,0,0,.36-.51h0l0-1.22v0h0V62.1h0C34.87,62.31,34.71,62.53,34.38,62.68Z"/><path class="cls-3" d="M31.56,62c0,.21.14.43.47.6a2.89,2.89,0,0,0,2.34,0h0c.33-.15.49-.37.49-.58a.57.57,0,0,0-.21-.4,1.34,1.34,0,0,0-.26-.19h0a2.24,2.24,0,0,0-.31-.11,3.18,3.18,0,0,0-1.41-.11,2.25,2.25,0,0,0-.62.18.78.78,0,0,0-.18.11A.57.57,0,0,0,31.56,62Z"/><polygon class="cls-21" points="25.98 59.41 23.82 60.47 23.82 60.47 23.82 60.47 23.85 60.49 23.85 60.49 25.98 59.43 25.98 59.41"/><path class="cls-18" d="M26,61.19h0l0-1.5v-.13h0v-.12l-2.13,1.06.12.06h0l.13.07,2.33,1.16C26.12,61.62,26,61.4,26,61.19Z"/><path class="cls-1" d="M28.83,59.75a2.55,2.55,0,0,1-.63.18H28a2.8,2.8,0,0,1-1.49-.23,1,1,0,0,1-.23-.16l-.09-.08h0l-.06-.09h0A.41.41,0,0,1,26,59.1h0v.45h0v.13l0,1.5h0c0,.21.15.43.47.59h0a1.52,1.52,0,0,0,.2.06l.12,0a3.12,3.12,0,0,0,1.43.1h0a2.13,2.13,0,0,0,.59-.17,1.34,1.34,0,0,0,.36-.26.54.54,0,0,0,.14-.32h0v-.32l0-1.77h0C29.32,59.38,29.16,59.59,28.83,59.75Z"/><path class="cls-3" d="M28.29,58.38H28a3.14,3.14,0,0,0-.81,0,2.41,2.41,0,0,0-.69.18c-.32.16-.48.36-.49.57a.41.41,0,0,0,.07.26h0l.06.09h0l.09.08a1,1,0,0,0,.23.16,2.8,2.8,0,0,0,1.49.23h.23a2.55,2.55,0,0,0,.63-.18c.33-.16.49-.37.49-.59a.51.51,0,0,0-.07-.23l-.05-.08h0l-.07-.07a1.17,1.17,0,0,0-.27-.19,2.2,2.2,0,0,0-.36-.13h0Z"/><polygon class="cls-5" points="34.65 41.47 34.65 42.16 34.65 42.88 34.65 43.61 34.65 44.44 34.65 45.71 34.65 47.23 34.7 47.25 34.71 47.26 34.71 47.26 34.76 47.28 39.08 49.46 39.08 49.45 39.08 49.45 39.08 48.14 39.08 47.51 39.08 46.05 39.08 45.64 39.08 45.25 39.08 45.15 39.08 45.1 39.08 45.1 39.08 45.09 39.08 44.46 39.08 43.74 39.08 42.26 39.08 39.75 36.54 38.48 36.53 38.47 35.01 37.71 34.65 37.52 34.65 37.83 34.65 39.4 34.65 39.41 34.65 41.47"/><polygon class="cls-5" points="34.65 37.52 34.65 37.52 34.65 37.52 34.65 37.52"/><path class="cls-6" d="M41.56,35.52V36l0,1.11h0v.49h0c0,.21-.17.42-.5.57a2.38,2.38,0,0,1-.57.18h-.2a2.87,2.87,0,0,1-1.56-.23h0L38,37.78h0l-1.89-.94-.1.05-.37.18-.37.18-.58.28h0l.36.19,1.52.76h0l2.54,1.27h0l.54-.27.62-.3h0l.2-.1h0L42,38.31h0l.94-.46h0l1.41-.69.44-.22-1.45-.73-1.1-.55L42,35.53h0l-.57-.28a.44.44,0,0,1,.1.28Z"/><path class="cls-6" d="M40.39,34.71l0,0h.1Z"/><polygon class="cls-6" points="44.83 36.94 44.83 36.94 44.83 36.94 44.83 36.94"/><polygon class="cls-7" points="44.83 36.94 44.83 36.93 44.82 36.93 44.38 37.15 42.97 37.84 42.96 37.84 42.02 38.3 42.01 38.31 40.44 39.08 40.44 39.08 40.24 39.18 40.24 39.18 39.62 39.48 39.08 39.75 39.08 39.75 39.08 39.75 39.08 42.26 39.08 43.74 39.08 44.46 39.08 45.09 39.08 45.1 39.08 45.1 39.08 45.15 39.08 45.25 39.08 45.64 39.08 46.05 39.08 47.51 39.08 48.14 39.08 49.45 39.08 49.45 40.44 48.79 40.44 48.78 44.73 46.68 44.79 46.65 44.79 46.65 44.79 46.65 44.83 46.63 44.83 45.07 44.83 42.99 44.83 42.27 44.83 42.25 44.83 42.17 44.83 41.36 44.83 38.8 44.83 38.79 44.83 37.54 44.83 37.2 44.83 36.94 44.83 36.94"/><polygon class="cls-18" points="37.38 36.18 38.22 35.77 38.22 35.77 38.22 35.77 37.38 36.18 37.38 36.18 37.38 36.18"/><polygon class="cls-20" points="36.07 36.83 36.41 36.66 37.38 36.18 37.38 36.18 37.38 36.18 36.07 36.83 36.07 36.83"/><path class="cls-23" d="M38,37.78l.71.35h0a.82.82,0,0,1-.45-.48h0s0-.07,0-.1h0l0-1.77-.84.41-1,.48-.33.17,1.89.94Z"/><path class="cls-5" d="M38.22,35.77l0,1.77h0s0,.07,0,.1h0a.82.82,0,0,0,.45.48h0a2.87,2.87,0,0,0,1.56.23h.2a2.38,2.38,0,0,0,.57-.18c.33-.15.49-.36.5-.57h0v-.49h0l0-1.11v-.48h0c0,.22-.16.43-.49.59a2.47,2.47,0,0,1-.81.19h0l-.23,0a2.77,2.77,0,0,1-1.25-.26.92.92,0,0,1-.4-.34h0a.41.41,0,0,1-.07-.26h0v.31Z"/><path class="cls-9" d="M38.32,35.72h0a.92.92,0,0,0,.4.34,2.77,2.77,0,0,0,1.25.26l.23,0h0a2.47,2.47,0,0,0,.81-.19c.33-.16.49-.37.49-.59a.44.44,0,0,0-.1-.28,1.05,1.05,0,0,0-.37-.3,2,2,0,0,0-.62-.2h-.1l-.11,0h0a2.85,2.85,0,0,0-1.5.19.73.73,0,0,0-.49.54v0a.41.41,0,0,0,.07.26Z"/><polygon class="cls-5" points="54.11 19.62 54.48 20.03 54.48 20.03 54.48 20.03 54.76 19.3 57.29 12.66 54.27 9.37 54.28 9.37 54.28 9.37 51.47 16.74 53.79 19.27 53.89 19.39 54.11 19.62"/><path class="cls-6" d="M60,8.84h0a.2.2,0,0,0,.08,0Z"/><polygon class="cls-6" points="63.01 12.13 63.01 12.13 63.01 12.13 63.01 12.13"/><path class="cls-6" d="M57.29,12.66h0L63,12.12,60.7,9.61a.45.45,0,0,1,0,.28h0L60,11.63h0c-.07.18-.27.3-.6.33a2.66,2.66,0,0,1-1.94-.78h0L55.69,9.24l-1.41.13h0Z"/><polygon class="cls-7" points="57.29 12.65 57.29 12.66 54.76 19.3 54.48 20.03 54.48 20.03 55.92 19.89 60.21 19.5 63.01 12.13 63.01 12.13 63.01 12.12 63 12.12 57.29 12.65 57.29 12.65"/><polygon class="cls-15" points="57.83 9.04 57.83 9.04 55.69 9.23 55.69 9.24 57.37 9.08 57.83 9.04"/><path class="cls-23" d="M57.26,10.52h0L57.83,9l-.46,0-1.68.16,1.78,1.93A.65.65,0,0,1,57.26,10.52Z"/><path class="cls-5" d="M57.24,10.51h0a.65.65,0,0,0,.21.65h0a2.66,2.66,0,0,0,1.94.78c.33,0,.53-.15.6-.33h0l.69-1.73h0c-.07.18-.27.3-.6.33a2.14,2.14,0,0,1-.77-.11,2.51,2.51,0,0,1-1.17-.67A.8.8,0,0,1,58,9h0a.39.39,0,0,1,0-.24h0L57.83,9h0Z"/><path class="cls-9" d="M58,9a.8.8,0,0,0,.21.41,2.51,2.51,0,0,0,1.17.67,2.14,2.14,0,0,0,.77.11c.33,0,.53-.15.6-.33a.45.45,0,0,0,0-.28.86.86,0,0,0-.21-.36A2.07,2.07,0,0,0,60,8.88a.2.2,0,0,1-.08,0,2.57,2.57,0,0,0-1.41-.37.63.63,0,0,0-.59.32A.39.39,0,0,0,58,9Z"/><polygon class="cls-5" points="28.75 14.79 28.74 14.79 28.74 14.79 22.77 9.64 18.65 11.35 18.65 11.35 18.65 11.35 24.63 16.5 28.75 14.79"/><path class="cls-6" d="M20.1,5.79v0l.07-.06Z"/><path class="cls-6" d="M22.77,9.64h0l1.45-5.55-3.14,1.3a.46.46,0,0,1,.26.1v0l1.39,1.24v0a.63.63,0,0,1,.1.67A2.62,2.62,0,0,1,21.43,9h0L19,10l-.36,1.38h0Z"/><polygon class="cls-7" points="22.77 9.64 22.77 9.64 28.74 14.79 28.74 14.79 30.19 9.23 24.22 4.08 24.21 4.08 24.21 4.09 22.76 9.64 22.77 9.64"/><polygon class="cls-15" points="19.55 7.9 19.55 7.9 19.55 7.89 19.01 9.98 19.01 9.97 19.15 9.44 19.55 7.9"/><path class="cls-23" d="M21.43,9h0a.64.64,0,0,1-.68,0h0l-1.19-1-.4,1.54L19,10l2.42-1Z"/><path class="cls-5" d="M19.55,7.9l1.19,1h0a.64.64,0,0,0,.68,0h0A2.62,2.62,0,0,0,22.82,7.4a.63.63,0,0,0-.1-.67v0L21.34,5.47v0a.61.61,0,0,1,.11.67,2.07,2.07,0,0,1-.37.7,2.5,2.5,0,0,1-1,.87.77.77,0,0,1-.46,0h0a.32.32,0,0,1-.22-.09l0,0,.21.18Z"/><path class="cls-9" d="M19.58,7.78a.77.77,0,0,0,.46,0,2.5,2.5,0,0,0,1-.87,2.07,2.07,0,0,0,.37-.7.61.61,0,0,0-.11-.67.46.46,0,0,0-.26-.1.81.81,0,0,0-.41.08,1.75,1.75,0,0,0-.5.3l-.07.06A2.67,2.67,0,0,0,19.26,7a.63.63,0,0,0,.1.66.32.32,0,0,0,.22.09Z"/><polygon class="cls-5" points="42.9 10.94 42.9 10.94 42.9 10.94 41.47 4.13 37.66 3.12 37.66 3.12 37.66 3.12 39.09 9.94 42.9 10.94"/><polygon class="cls-6" points="45.46 1.01 45.46 1.01 45.46 1.01 45.46 1.01"/><path class="cls-6" d="M41.66,0l0,0h0Z"/><path class="cls-6" d="M41.47,4.13h0l4-3.12L42.55.24a.35.35,0,0,1,.13.2h0L43,2.06h0c0,.16-.07.35-.29.53a2.34,2.34,0,0,1-1.82.34h0l-2.24-.58-1,.77h0Z"/><polygon class="cls-7" points="41.47 4.13 41.47 4.13 42.9 10.94 42.9 10.94 46.89 7.82 45.46 1.01 45.46 1.01 45.46 1 45.45 1 41.47 4.12 41.47 4.13"/><polygon class="cls-15" points="40.15 1.18 38.65 2.35 38.65 2.35 40.15 1.18 40.15 1.18"/><path class="cls-23" d="M40.89,2.93c-.28-.07-.43-.21-.46-.38h0l-.26-1.37-1.5,1.17,2.24.58Z"/><path class="cls-5" d="M40.41,2.55h0c0,.17.18.31.46.38a2.34,2.34,0,0,0,1.82-.34c.22-.18.32-.37.29-.53h0L42.7.44h0c0,.17,0,.36-.28.54a2.16,2.16,0,0,1-.63.29,2.21,2.21,0,0,1-1.19.05.69.69,0,0,1-.35-.2h0a.34.34,0,0,1-.11-.19h0l0,.24h0Z"/><path class="cls-9" d="M40.23,1.12h0a.69.69,0,0,0,.35.2,2.21,2.21,0,0,0,1.19-.05A2.16,2.16,0,0,0,42.4,1c.23-.18.32-.37.28-.54a.35.35,0,0,0-.13-.2.73.73,0,0,0-.33-.17A1.66,1.66,0,0,0,41.71,0h-.08a2.22,2.22,0,0,0-1.22.4c-.23.17-.32.35-.29.51a.34.34,0,0,0,.11.19Z"/><polygon class="cls-5" points="44.91 65.75 44.91 64.89 44.91 64.52 44.91 64.08 44.91 63.29 44.91 62.52 44.91 62.48 44.91 62.47 44.91 62.46 44.91 62.46 44.91 61.9 44.91 61.32 44.91 61.28 44.91 60.86 44.91 60.83 44.91 60.81 44.91 60.8 44.91 59.66 43.43 58.92 43.39 58.9 43.35 58.88 43.22 58.81 40.47 57.43 40.47 58.78 40.47 59.13 40.47 59.51 40.47 60.17 40.47 60.19 40.47 60.2 40.47 60.2 40.47 60.25 40.47 61.63 40.47 62.98 40.47 62.99 40.47 63.04 40.47 63.54 40.47 63.55 40.47 63.61 42.88 64.82 44.91 65.84 44.91 65.83 44.91 65.76 44.91 65.75"/><polygon class="cls-5" points="40.47 57.42 40.47 57.43 40.47 57.43 40.47 57.42"/><path class="cls-6" d="M46.21,54.61l-.23.12a2.46,2.46,0,0,1,.78.16Z"/><path class="cls-6" d="M43.35,58.88l0,0,0,0,1.48.74h0l1.8-.89,2.75-1.34.44-.22.06,0h0l.68-.33-1.36-.68L49,56l-1.7-.86a.58.58,0,0,1,.24.43h0v.35h0v.79l0,.93h0c0,.21-.17.42-.5.57a1.83,1.83,0,0,1-.25.08,1.91,1.91,0,0,1-.34.1h-.15a2.79,2.79,0,0,1-1.59-.23h0l-.05,0-.43-.21-.65-.32-.62-.31L42,56.86l.85-.41.05,0,.38-.19.87-.42v-.2l-1.28.63h0l0,0-2.39,1.17h0l2.75,1.38Z"/><polygon class="cls-7" points="48.21 64.21 48.27 64.18 48.27 64.18 48.27 64.18 49.75 63.45 50.65 63.01 50.65 61.79 50.65 61.68 50.65 61.01 50.65 60.56 50.65 60.24 50.65 60.17 50.65 59.63 50.65 58.97 50.65 58.34 50.65 58.32 50.65 58.03 50.65 57.98 50.65 57.97 50.65 57.87 50.65 57.58 50.65 57.52 50.65 57.52 50.65 57.52 50.65 56.84 50.65 56.83 50.64 56.84 49.96 57.17 49.96 57.17 49.96 57.17 49.9 57.2 49.46 57.42 46.71 58.76 44.91 59.65 44.91 59.66 44.91 59.66 44.91 60.8 44.91 60.81 44.91 60.83 44.91 60.86 44.91 61.28 44.91 61.32 44.91 61.9 44.91 62.46 44.91 62.46 44.91 62.47 44.91 62.48 44.91 62.52 44.91 63.29 44.91 64.08 44.91 64.52 44.91 64.89 44.91 65.75 44.91 65.76 44.91 65.83 44.98 65.8 44.98 65.79 46.25 65.17 48.21 64.21"/><path class="cls-23" d="M44.58,58.14a1,1,0,0,1-.27-.21.53.53,0,0,1-.16-.35h0V55.81l-.87.42-.38.19-.05,0-.85.41.86.44.62.31.65.32.43.21.05,0h0Z"/><path class="cls-5" d="M44.16,56.22v1.36h0a.53.53,0,0,0,.16.35,1,1,0,0,0,.27.21l.05,0h0a2.79,2.79,0,0,0,1.59.23h.15a1.91,1.91,0,0,0,.34-.1,1.83,1.83,0,0,0,.25-.08c.33-.15.49-.36.5-.57h0l0-.93v-.79h0v-.35h0a.48.48,0,0,1-.11.29h0l0,0a1.09,1.09,0,0,1-.35.25,2.29,2.29,0,0,1-.77.19h-.08A3,3,0,0,1,45,56.2a1.42,1.42,0,0,1-.29-.1,1,1,0,0,1-.39-.34.52.52,0,0,1-.06-.16.44.44,0,0,1,0-.1h0v.72Z"/><path class="cls-9" d="M44.27,55.76a1,1,0,0,0,.39.34,1.42,1.42,0,0,0,.29.1,3,3,0,0,0,1.2.14h.08a2.29,2.29,0,0,0,.77-.19,1.09,1.09,0,0,0,.35-.25l0,0h0a.48.48,0,0,0,.11-.29.58.58,0,0,0-.24-.43A1.53,1.53,0,0,0,47,55a2,2,0,0,0-.26-.09,2.46,2.46,0,0,0-.78-.16,3.42,3.42,0,0,0-.72,0h0l-.07,0a2.44,2.44,0,0,0-.5.16.74.74,0,0,0-.47.49.19.19,0,0,0,0,.07.44.44,0,0,0,0,.1A.52.52,0,0,0,44.27,55.76Z"/></g></g></svg>